<svg width="1680" height="58" viewBox="0 0 1680 58" fill="none" xmlns="http://www.w3.org/2000/svg">
<g clip-path="url(#clip0_2741_179738)">
<rect width="1680" height="58" fill="#020405"/>
<circle cx="533.75" cy="39.75" r="0.75" fill="#A095CF" fill-opacity="0.6"/>
<circle cx="564.919" cy="36.9189" r="0.75" transform="rotate(165 564.919 36.9189)" fill="#A095CF" fill-opacity="0.6"/>
<circle cx="577.919" cy="37.9189" r="0.75" transform="rotate(165 577.919 37.9189)" fill="#A095CF" fill-opacity="0.6"/>
<circle cx="563.218" cy="26.4814" r="0.75" transform="rotate(165 563.218 26.4814)" fill="#A095CF" fill-opacity="0.6"/>
<g filter="url(#filter0_d_2741_179738)">
<circle cx="539.908" cy="19.9068" r="0.9" transform="rotate(89.5676 539.908 19.9068)" fill="#FFFFF9"/>
</g>
<g filter="url(#filter1_d_2741_179738)">
<circle cx="570.908" cy="43.9068" r="0.9" transform="rotate(89.5676 570.908 43.9068)" fill="#FFFFF9"/>
</g>
<circle cx="518.378" cy="27.1301" r="0.75" transform="rotate(16.7993 518.378 27.1301)" fill="#A095CF" fill-opacity="0.6"/>
<circle cx="548.163" cy="28.8098" r="0.75" transform="rotate(16.7993 548.163 28.8098)" fill="#A095CF" fill-opacity="0.6"/>
<circle cx="580.368" cy="15.5519" r="0.75" transform="rotate(16.7993 580.368 15.5519)" fill="#A095CF" fill-opacity="0.6"/>
<circle cx="555.737" cy="35.4534" r="0.75" transform="rotate(-178.201 555.737 35.4534)" fill="#A095CF" fill-opacity="0.6"/>
<circle cx="567.893" cy="40.1682" r="0.75" transform="rotate(-178.201 567.893 40.1682)" fill="#A095CF" fill-opacity="0.6"/>
<circle cx="557.124" cy="24.969" r="0.75" transform="rotate(-178.201 557.124 24.969)" fill="#A095CF" fill-opacity="0.6"/>
<g filter="url(#filter2_d_2741_179738)">
<circle cx="510.117" cy="29.1177" r="0.9" transform="rotate(106.367 510.117 29.1177)" fill="#FFFFF9"/>
</g>
<circle cx="0.75" cy="0.75" r="0.75" transform="matrix(-1 0 0 1 1163.5 37)" fill="#A095CF" fill-opacity="0.6"/>
<circle cx="0.75" cy="0.75" r="0.75" transform="matrix(-1 0 0 1 1134.5 30)" fill="#A095CF" fill-opacity="0.6"/>
<circle cx="0.75" cy="0.75" r="0.75" transform="matrix(0.965926 0.258819 0.258819 -0.965926 1123.66 35.4492)" fill="#A095CF" fill-opacity="0.6"/>
<circle cx="0.75" cy="0.75" r="0.75" transform="matrix(0.965926 0.258819 0.258819 -0.965926 1110.66 36.4492)" fill="#A095CF" fill-opacity="0.6"/>
<circle cx="0.75" cy="0.75" r="0.75" transform="matrix(0.965926 0.258819 0.258819 -0.965926 1125.36 25.0117)" fill="#A095CF" fill-opacity="0.6"/>
<g filter="url(#filter3_d_2741_179738)">
<circle cx="0.9" cy="0.9" r="0.9" transform="matrix(-0.0075466 0.999972 0.999972 0.0075466 1148.7 17)" fill="#FFFFF9"/>
</g>
<g filter="url(#filter4_d_2741_179738)">
<circle cx="0.9" cy="0.9" r="0.9" transform="matrix(-0.0075466 0.999972 0.999972 0.0075466 1117.7 41)" fill="#FFFFF9"/>
</g>
<circle cx="0.75" cy="0.75" r="0.75" transform="matrix(-0.957323 0.28902 0.28902 0.957323 1171.62 24.1953)" fill="#A095CF" fill-opacity="0.6"/>
<circle cx="0.75" cy="0.75" r="0.75" transform="matrix(-0.957323 0.28902 0.28902 0.957323 1141.84 25.875)" fill="#A095CF" fill-opacity="0.6"/>
<circle cx="0.75" cy="0.75" r="0.75" transform="matrix(-0.957323 0.28902 0.28902 0.957323 1109.63 12.6172)" fill="#A095CF" fill-opacity="0.6"/>
<circle cx="0.75" cy="0.75" r="0.75" transform="matrix(0.999507 -0.0313981 -0.0313981 -0.999507 1133.04 34.2266)" fill="#A095CF" fill-opacity="0.6"/>
<circle cx="0.75" cy="0.75" r="0.75" transform="matrix(0.999507 -0.0313981 -0.0313981 -0.999507 1120.88 38.9414)" fill="#A095CF" fill-opacity="0.6"/>
<circle cx="0.75" cy="0.75" r="0.75" transform="matrix(0.999507 -0.0313981 -0.0313981 -0.999507 1131.65 23.7422)" fill="#A095CF" fill-opacity="0.6"/>
<g filter="url(#filter5_d_2741_179738)">
<circle cx="0.9" cy="0.9" r="0.9" transform="matrix(0.281787 0.959477 0.959477 -0.281787 1178.27 26.5078)" fill="#FFFFF9"/>
</g>
<g filter="url(#filter6_d_2741_179738)">
<circle cx="0.9" cy="0.9" r="0.9" transform="matrix(0.281787 0.959477 0.959477 -0.281787 1111.27 20.5078)" fill="#FFFFF9"/>
</g>
<g opacity="0.3" filter="url(#filter7_f_2741_179738)">
<path d="M578.05 489.78C731.509 525.786 856.709 187.365 900.126 13.6533C999.59 -322.717 1511.12 -197.169 1361.93 -436.417C1212.73 -675.665 971.172 -443.524 578.05 -452.999C184.927 -462.474 471.48 -85.836 469.112 174.731C466.744 435.298 14.4164 440.036 35.7302 594.007C57.0441 747.979 386.225 444.773 578.05 489.78Z" fill="#6F13A4"/>
</g>
<g opacity="0.3" filter="url(#filter8_f_2741_179738)">
<path d="M1029.71 390.284C1125.7 412.807 1204.02 201.115 1231.18 92.4534C1293.4 -117.956 1613.39 -39.4217 1520.06 -189.078C1426.73 -338.734 1275.63 -193.524 1029.71 -199.451C783.787 -205.378 963.042 30.2201 961.561 193.212C960.079 356.204 677.124 359.168 690.457 455.481C703.79 551.795 909.71 362.131 1029.71 390.284Z" fill="#1C4C5A"/>
</g>
<g style="mix-blend-mode:color-dodge" filter="url(#filter9_f_2741_179738)">
<ellipse cx="840.019" cy="29.0507" rx="182.019" ry="141.051" fill="#0DAA84" fill-opacity="0.4"/>
</g>
</g>
<defs>
<filter id="filter0_d_2741_179738" x="534.008" y="14.0078" width="11.7988" height="11.8008" filterUnits="userSpaceOnUse" color-interpolation-filters="sRGB">
<feFlood flood-opacity="0" result="BackgroundImageFix"/>
<feColorMatrix in="SourceAlpha" type="matrix" values="0 0 0 0 0 0 0 0 0 0 0 0 0 0 0 0 0 0 127 0" result="hardAlpha"/>
<feMorphology radius="1" operator="dilate" in="SourceAlpha" result="effect1_dropShadow_2741_179738"/>
<feOffset/>
<feGaussianBlur stdDeviation="2"/>
<feComposite in2="hardAlpha" operator="out"/>
<feColorMatrix type="matrix" values="0 0 0 0 0.979167 0 0 0 0 0.96399 0 0 0 0 0.59974 0 0 0 0.25 0"/>
<feBlend mode="normal" in2="BackgroundImageFix" result="effect1_dropShadow_2741_179738"/>
<feBlend mode="normal" in="SourceGraphic" in2="effect1_dropShadow_2741_179738" result="shape"/>
</filter>
<filter id="filter1_d_2741_179738" x="565.008" y="38.0078" width="11.7988" height="11.8008" filterUnits="userSpaceOnUse" color-interpolation-filters="sRGB">
<feFlood flood-opacity="0" result="BackgroundImageFix"/>
<feColorMatrix in="SourceAlpha" type="matrix" values="0 0 0 0 0 0 0 0 0 0 0 0 0 0 0 0 0 0 127 0" result="hardAlpha"/>
<feMorphology radius="1" operator="dilate" in="SourceAlpha" result="effect1_dropShadow_2741_179738"/>
<feOffset/>
<feGaussianBlur stdDeviation="2"/>
<feComposite in2="hardAlpha" operator="out"/>
<feColorMatrix type="matrix" values="0 0 0 0 0.979167 0 0 0 0 0.96399 0 0 0 0 0.59974 0 0 0 0.25 0"/>
<feBlend mode="normal" in2="BackgroundImageFix" result="effect1_dropShadow_2741_179738"/>
<feBlend mode="normal" in="SourceGraphic" in2="effect1_dropShadow_2741_179738" result="shape"/>
</filter>
<filter id="filter2_d_2741_179738" x="504.217" y="23.2188" width="11.8008" height="11.8008" filterUnits="userSpaceOnUse" color-interpolation-filters="sRGB">
<feFlood flood-opacity="0" result="BackgroundImageFix"/>
<feColorMatrix in="SourceAlpha" type="matrix" values="0 0 0 0 0 0 0 0 0 0 0 0 0 0 0 0 0 0 127 0" result="hardAlpha"/>
<feMorphology radius="1" operator="dilate" in="SourceAlpha" result="effect1_dropShadow_2741_179738"/>
<feOffset/>
<feGaussianBlur stdDeviation="2"/>
<feComposite in2="hardAlpha" operator="out"/>
<feColorMatrix type="matrix" values="0 0 0 0 0.979167 0 0 0 0 0.96399 0 0 0 0 0.59974 0 0 0 0.25 0"/>
<feBlend mode="normal" in2="BackgroundImageFix" result="effect1_dropShadow_2741_179738"/>
<feBlend mode="normal" in="SourceGraphic" in2="effect1_dropShadow_2741_179738" result="shape"/>
</filter>
<filter id="filter3_d_2741_179738" x="1143.69" y="12.0078" width="11.7988" height="11.8008" filterUnits="userSpaceOnUse" color-interpolation-filters="sRGB">
<feFlood flood-opacity="0" result="BackgroundImageFix"/>
<feColorMatrix in="SourceAlpha" type="matrix" values="0 0 0 0 0 0 0 0 0 0 0 0 0 0 0 0 0 0 127 0" result="hardAlpha"/>
<feMorphology radius="1" operator="dilate" in="SourceAlpha" result="effect1_dropShadow_2741_179738"/>
<feOffset/>
<feGaussianBlur stdDeviation="2"/>
<feComposite in2="hardAlpha" operator="out"/>
<feColorMatrix type="matrix" values="0 0 0 0 0.979167 0 0 0 0 0.96399 0 0 0 0 0.59974 0 0 0 0.25 0"/>
<feBlend mode="normal" in2="BackgroundImageFix" result="effect1_dropShadow_2741_179738"/>
<feBlend mode="normal" in="SourceGraphic" in2="effect1_dropShadow_2741_179738" result="shape"/>
</filter>
<filter id="filter4_d_2741_179738" x="1112.69" y="36.0078" width="11.7988" height="11.8008" filterUnits="userSpaceOnUse" color-interpolation-filters="sRGB">
<feFlood flood-opacity="0" result="BackgroundImageFix"/>
<feColorMatrix in="SourceAlpha" type="matrix" values="0 0 0 0 0 0 0 0 0 0 0 0 0 0 0 0 0 0 127 0" result="hardAlpha"/>
<feMorphology radius="1" operator="dilate" in="SourceAlpha" result="effect1_dropShadow_2741_179738"/>
<feOffset/>
<feGaussianBlur stdDeviation="2"/>
<feComposite in2="hardAlpha" operator="out"/>
<feColorMatrix type="matrix" values="0 0 0 0 0.979167 0 0 0 0 0.96399 0 0 0 0 0.59974 0 0 0 0.25 0"/>
<feBlend mode="normal" in2="BackgroundImageFix" result="effect1_dropShadow_2741_179738"/>
<feBlend mode="normal" in="SourceGraphic" in2="effect1_dropShadow_2741_179738" result="shape"/>
</filter>
<filter id="filter5_d_2741_179738" x="1173.48" y="21.2188" width="11.8008" height="11.8008" filterUnits="userSpaceOnUse" color-interpolation-filters="sRGB">
<feFlood flood-opacity="0" result="BackgroundImageFix"/>
<feColorMatrix in="SourceAlpha" type="matrix" values="0 0 0 0 0 0 0 0 0 0 0 0 0 0 0 0 0 0 127 0" result="hardAlpha"/>
<feMorphology radius="1" operator="dilate" in="SourceAlpha" result="effect1_dropShadow_2741_179738"/>
<feOffset/>
<feGaussianBlur stdDeviation="2"/>
<feComposite in2="hardAlpha" operator="out"/>
<feColorMatrix type="matrix" values="0 0 0 0 0.979167 0 0 0 0 0.96399 0 0 0 0 0.59974 0 0 0 0.25 0"/>
<feBlend mode="normal" in2="BackgroundImageFix" result="effect1_dropShadow_2741_179738"/>
<feBlend mode="normal" in="SourceGraphic" in2="effect1_dropShadow_2741_179738" result="shape"/>
</filter>
<filter id="filter6_d_2741_179738" x="1106.48" y="15.2188" width="11.8008" height="11.8008" filterUnits="userSpaceOnUse" color-interpolation-filters="sRGB">
<feFlood flood-opacity="0" result="BackgroundImageFix"/>
<feColorMatrix in="SourceAlpha" type="matrix" values="0 0 0 0 0 0 0 0 0 0 0 0 0 0 0 0 0 0 127 0" result="hardAlpha"/>
<feMorphology radius="1" operator="dilate" in="SourceAlpha" result="effect1_dropShadow_2741_179738"/>
<feOffset/>
<feGaussianBlur stdDeviation="2"/>
<feComposite in2="hardAlpha" operator="out"/>
<feColorMatrix type="matrix" values="0 0 0 0 0.979167 0 0 0 0 0.96399 0 0 0 0 0.59974 0 0 0 0.25 0"/>
<feBlend mode="normal" in2="BackgroundImageFix" result="effect1_dropShadow_2741_179738"/>
<feBlend mode="normal" in="SourceGraphic" in2="effect1_dropShadow_2741_179738" result="shape"/>
</filter>
<filter id="filter7_f_2741_179738" x="-251.224" y="-831.224" width="1926.45" height="1755.45" filterUnits="userSpaceOnUse" color-interpolation-filters="sRGB">
<feFlood flood-opacity="0" result="BackgroundImageFix"/>
<feBlend mode="normal" in="SourceGraphic" in2="BackgroundImageFix" result="shape"/>
<feGaussianBlur stdDeviation="143.112" result="effect1_foregroundBlur_2741_179738"/>
</filter>
<filter id="filter8_f_2741_179738" x="505.093" y="-441.907" width="1216.81" height="1109.81" filterUnits="userSpaceOnUse" color-interpolation-filters="sRGB">
<feFlood flood-opacity="0" result="BackgroundImageFix"/>
<feBlend mode="normal" in="SourceGraphic" in2="BackgroundImageFix" result="shape"/>
<feGaussianBlur stdDeviation="92.4535" result="effect1_foregroundBlur_2741_179738"/>
</filter>
<filter id="filter9_f_2741_179738" x="534" y="-236" width="612.037" height="530.102" filterUnits="userSpaceOnUse" color-interpolation-filters="sRGB">
<feFlood flood-opacity="0" result="BackgroundImageFix"/>
<feBlend mode="normal" in="SourceGraphic" in2="BackgroundImageFix" result="shape"/>
<feGaussianBlur stdDeviation="62" result="effect1_foregroundBlur_2741_179738"/>
</filter>
<clipPath id="clip0_2741_179738">
<rect width="1680" height="58" fill="white"/>
</clipPath>
</defs>
</svg>
