<svg width="191" height="40" viewBox="0 0 191 40" fill="none" xmlns="http://www.w3.org/2000/svg">
<g filter="url(#filter0_d_2685_17468)">
<path d="M21.6277 31.0938C21.0409 31.8327 19.8513 31.4279 19.8371 30.4844L19.6304 16.6849H28.9091C30.5898 16.6849 31.5271 18.6261 30.482 19.9423L21.6277 31.0938Z" fill="white"/>
<path d="M17.8542 8.88944C18.4409 8.15046 19.6307 8.55537 19.6448 9.49886L19.7354 23.2983H10.5728C8.89208 23.2983 7.95473 21.3572 8.99983 20.0409L17.8542 8.88944Z" fill="white"/>
</g>
<path d="M48.8419 25.9922L48.8419 14.8242L50.1859 14.8242L50.1859 24.8242L55.4819 24.8242L55.4819 25.9922L48.8419 25.9922ZM65.8116 25.9922L64.8676 22.8082L60.9476 22.8082L60.0036 25.9922H58.6116L62.0356 14.8242L63.8116 14.8242L67.2356 25.9922L65.8116 25.9922ZM62.9796 16.2482H62.8356L61.2676 21.6402L64.5476 21.6402L62.9796 16.2482ZM71.9334 14.8242L71.9334 21.5282C71.9334 22.0722 71.9494 22.5575 71.9814 22.9842C72.0134 23.4109 72.0987 23.7789 72.2374 24.0882C72.376 24.3869 72.5894 24.6162 72.8774 24.7762C73.176 24.9362 73.5867 25.0162 74.1094 25.0162C74.632 25.0162 75.0374 24.9362 75.3254 24.7762C75.624 24.6162 75.8427 24.3869 75.9814 24.0882C76.12 23.7789 76.2054 23.4109 76.2374 22.9842C76.2694 22.5575 76.2854 22.0722 76.2854 21.5282L76.2854 14.8242L77.6294 14.8242L77.6294 21.2082C77.6294 22.0402 77.5867 22.7655 77.5014 23.3842C77.4267 24.0029 77.2614 24.5202 77.0054 24.9362C76.76 25.3522 76.4027 25.6669 75.9334 25.8802C75.4747 26.0829 74.8667 26.1842 74.1094 26.1842C73.352 26.1842 72.7387 26.0829 72.2694 25.8802C71.8107 25.6669 71.4534 25.3522 71.1974 24.9362C70.952 24.5202 70.7867 24.0029 70.7014 23.3842C70.6267 22.7655 70.5894 22.0402 70.5894 21.2082L70.5894 14.8242L71.9334 14.8242ZM83.1111 16.5362H82.9991L82.9991 25.9922L81.7831 25.9922L81.7831 14.8242L83.6871 14.8242L87.4951 24.1842H87.6071L87.6071 14.8242L88.8231 14.8242L88.8231 25.9922H86.9191L83.1111 16.5362ZM96.8649 26.1842C95.4995 26.1842 94.4809 25.6882 93.8089 24.6962C93.1475 23.7042 92.8169 22.2749 92.8169 20.4082C92.8169 18.5415 93.1475 17.1122 93.8089 16.1202C94.4809 15.1282 95.4995 14.6322 96.8649 14.6322C97.3769 14.6322 97.8195 14.7015 98.1929 14.8402C98.5662 14.9789 98.8862 15.1655 99.1529 15.4002C99.4195 15.6349 99.6435 15.9015 99.8249 16.2002C100.006 16.4882 100.166 16.7815 100.305 17.0802L99.1529 17.6082C99.0569 17.3629 98.9449 17.1335 98.8169 16.9202C98.6889 16.6962 98.5342 16.5042 98.3529 16.3442C98.1822 16.1735 97.9742 16.0402 97.7289 15.9442C97.4942 15.8482 97.2062 15.8002 96.8649 15.8002C95.9795 15.8002 95.3182 16.1362 94.8809 16.8082C94.4542 17.4802 94.2409 18.3762 94.2409 19.4962V21.3202C94.2409 22.4402 94.4542 23.3362 94.8809 24.0082C95.3182 24.6802 95.9795 25.0162 96.8649 25.0162C97.2062 25.0162 97.4942 24.9682 97.7289 24.8722C97.9742 24.7762 98.1822 24.6482 98.3529 24.4882C98.5342 24.3175 98.6889 24.1255 98.8169 23.9122C98.9449 23.6882 99.0569 23.4535 99.1529 23.2082L100.305 23.7362C100.166 24.0455 100.006 24.3442 99.8249 24.6322C99.6435 24.9202 99.4195 25.1815 99.1529 25.4162C98.8862 25.6509 98.5662 25.8375 98.1929 25.9762C97.8195 26.1149 97.3769 26.1842 96.8649 26.1842ZM109.867 20.9202L105.515 20.9202L105.515 25.9922H104.171L104.171 14.8242L105.515 14.8242L105.515 19.7522L109.867 19.7522L109.867 14.8242L111.211 14.8242L111.211 25.9922L109.867 25.9922L109.867 20.9202ZM126.718 25.9922L125.838 14.8242L127.038 14.8242L127.502 21.2242L127.742 24.6002H127.87L129.342 17.7362H130.846L132.318 24.6002L132.446 24.6002L132.686 21.2242L133.15 14.8242L134.318 14.8242L133.438 25.9922L131.502 25.9922L130.142 19.3202H130.014L128.654 25.9922L126.718 25.9922ZM137.912 25.9922L137.912 14.8242L144.792 14.8242V15.9922L139.256 15.9922V19.7522L144.6 19.7522V20.9202L139.256 20.9202L139.256 24.8242L144.792 24.8242V25.9922L137.912 25.9922ZM149.106 25.9922L149.106 14.8242L155.986 14.8242V15.9922L150.45 15.9922V19.7522L155.794 19.7522V20.9202L150.45 20.9202L150.45 24.8242L155.986 24.8242V25.9922L149.106 25.9922ZM163.163 20.5202L161.563 22.4082L161.563 25.9922L160.219 25.9922L160.219 14.8242L161.563 14.8242V20.6482H161.611L163.083 18.7922L166.379 14.8242L167.995 14.8242L164.075 19.5282L168.107 25.9922H166.539L163.163 20.5202ZM186.047 26.1842C185.396 26.1842 184.826 26.1042 184.335 25.9442C183.844 25.7735 183.434 25.5442 183.103 25.2562C182.783 24.9682 182.538 24.6269 182.367 24.2322C182.207 23.8375 182.127 23.4109 182.127 22.9522C182.127 22.1842 182.335 21.5762 182.751 21.1282C183.167 20.6802 183.716 20.3655 184.399 20.1842V20.0562C183.802 19.8535 183.327 19.5282 182.975 19.0802C182.634 18.6215 182.463 18.0722 182.463 17.4322C182.463 16.5789 182.778 15.9015 183.407 15.4002C184.036 14.8882 184.916 14.6322 186.047 14.6322C187.178 14.6322 188.058 14.8882 188.687 15.4002C189.316 15.9015 189.631 16.5789 189.631 17.4322C189.631 18.0722 189.455 18.6215 189.103 19.0802C188.762 19.5282 188.292 19.8535 187.695 20.0562V20.1842C188.378 20.3655 188.927 20.6802 189.343 21.1282C189.759 21.5762 189.967 22.1842 189.967 22.9522C189.967 23.4109 189.882 23.8375 189.711 24.2322C189.551 24.6269 189.306 24.9682 188.975 25.2562C188.644 25.5442 188.234 25.7735 187.743 25.9442C187.263 26.1042 186.698 26.1842 186.047 26.1842ZM186.047 25.0482C186.836 25.0482 187.455 24.8722 187.903 24.5202C188.351 24.1682 188.575 23.6722 188.575 23.0322V22.6802C188.575 22.0402 188.351 21.5442 187.903 21.1922C187.466 20.8402 186.847 20.6642 186.047 20.6642C185.247 20.6642 184.623 20.8402 184.175 21.1922C183.738 21.5442 183.519 22.0402 183.519 22.6802V23.0322C183.519 23.6722 183.743 24.1682 184.191 24.5202C184.639 24.8722 185.258 25.0482 186.047 25.0482ZM186.047 19.5762C186.772 19.5762 187.322 19.4215 187.695 19.1122C188.079 18.8029 188.271 18.3602 188.271 17.7842V17.5602C188.271 16.9842 188.074 16.5415 187.679 16.2322C187.295 15.9229 186.751 15.7682 186.047 15.7682C185.343 15.7682 184.794 15.9229 184.399 16.2322C184.015 16.5415 183.823 16.9842 183.823 17.5602V17.7842C183.823 18.3602 184.01 18.8029 184.383 19.1122C184.767 19.4215 185.322 19.5762 186.047 19.5762Z" fill="white"/>
<defs>
<filter id="filter0_d_2685_17468" x="0.422864" y="0.37013" width="38.6367" height="39.2441" filterUnits="userSpaceOnUse" color-interpolation-filters="sRGB">
<feFlood flood-opacity="0" result="BackgroundImageFix"/>
<feColorMatrix in="SourceAlpha" type="matrix" values="0 0 0 0 0 0 0 0 0 0 0 0 0 0 0 0 0 0 127 0" result="hardAlpha"/>
<feOffset/>
<feGaussianBlur stdDeviation="4.06884"/>
<feComposite in2="hardAlpha" operator="out"/>
<feColorMatrix type="matrix" values="0 0 0 0 0.776333 0 0 0 0 0.491667 0 0 0 0 1 0 0 0 1 0"/>
<feBlend mode="normal" in2="BackgroundImageFix" result="effect1_dropShadow_2685_17468"/>
<feBlend mode="normal" in="SourceGraphic" in2="effect1_dropShadow_2685_17468" result="shape"/>
</filter>
</defs>
</svg>
