<svg width="771" height="391" viewBox="0 0 771 391" fill="none" xmlns="http://www.w3.org/2000/svg">
<g clip-path="url(#clip0_2689_198684)">
<rect width="770.064" height="390" transform="translate(0 0.0820312)" fill="#020405"/>
<rect width="770.064" height="390" transform="translate(0 0.0820312)" fill="#060F14" fill-opacity="0.05"/>
<g opacity="0.3" filter="url(#filter0_f_2689_198684)">
<path d="M310.67 587.901C292.721 717.533 258.314 598.216 96.7726 636.108C-712.661 825.975 -204.478 -232.153 -54.2934 234.903C12.8649 443.757 328.619 458.269 310.67 587.901Z" fill="#A48413"/>
</g>
<g opacity="0.3" filter="url(#filter1_f_2689_198684)">
<path d="M877.183 -246.003C979.407 -204.251 874.678 -201.048 871.91 -61.0728C858.039 640.297 99.1815 3.82322 512.37 -21.3866C697.136 -32.6597 774.959 -287.756 877.183 -246.003Z" fill="#1F220C"/>
</g>
<g filter="url(#filter2_f_2689_198684)">
<path d="M826.59 -494.67C898.67 -494.67 961.741 -485.659 1015.8 -467.639C1069.86 -448.418 1115.51 -422.589 1152.75 -390.152C1188.8 -357.716 1216.43 -319.273 1235.65 -274.823C1253.67 -230.374 1262.68 -182.32 1262.68 -130.662C1262.68 -44.1653 1239.25 24.3113 1192.4 74.7678C1145.55 125.224 1084.28 160.664 1008.59 181.087L1008.59 195.503C1074.67 218.328 1127.53 254.969 1167.17 305.426C1205.61 357.084 1224.84 418.953 1224.84 491.034C1224.84 587.141 1190 663.427 1120.32 719.89C1050.64 777.554 952.731 806.387 826.59 806.387C700.448 806.387 602.539 777.554 532.861 719.89C463.183 663.427 428.344 587.141 428.344 491.034C428.344 418.953 448.166 357.084 487.81 305.426C526.253 254.969 578.512 218.328 644.586 195.503L644.586 181.087C568.901 160.664 507.633 125.224 460.78 74.7677C413.928 24.3113 390.502 -44.1653 390.502 -130.662C390.502 -182.32 400.112 -230.374 419.334 -274.823C437.354 -319.273 464.985 -357.716 502.227 -390.153C538.267 -422.589 583.317 -448.418 637.378 -467.639C691.438 -485.659 754.509 -494.67 826.59 -494.67ZM826.59 -363.122C738.892 -363.122 671.016 -343.901 622.962 -305.458C574.908 -265.813 550.881 -209.951 550.881 -137.87L550.881 -100.028C550.881 -27.9473 574.908 27.3147 622.962 65.7577C671.016 105.402 738.891 125.224 826.59 125.224C914.288 125.224 982.164 105.402 1030.22 65.7577C1078.27 27.3147 1102.3 -27.9472 1102.3 -100.028L1102.3 -137.87C1102.3 -209.951 1078.27 -265.813 1030.22 -305.458C982.164 -343.901 914.288 -363.122 826.59 -363.122ZM826.59 251.365C747.301 251.365 687.234 268.184 646.388 301.822C605.542 335.46 585.119 384.715 585.119 449.587L585.119 476.617C585.119 541.49 605.542 590.745 646.388 624.383C687.234 658.021 747.301 674.839 826.59 674.839C905.878 674.839 965.946 658.021 1006.79 624.383C1047.64 590.745 1068.06 541.49 1068.06 476.618L1068.06 449.587C1068.06 384.715 1047.64 335.46 1006.79 301.822C965.946 268.184 905.878 251.365 826.59 251.365Z" fill="url(#paint0_linear_2689_198684)" fill-opacity="0.26"/>
</g>
<g filter="url(#filter3_f_2689_198684)">
<path d="M549.586 73.3158C549.586 71.8431 548.393 70.6492 546.92 70.6492C545.447 70.6492 544.253 71.8431 544.253 73.3158C544.253 74.7886 545.447 75.9825 546.92 75.9825C548.393 75.9825 549.586 74.7886 549.586 73.3158ZM754.131 149.952C670.427 141.693 599.994 115.747 547.235 72.9276L546.605 73.7041C599.552 116.676 670.185 142.673 754.033 150.947L754.131 149.952Z" fill="url(#paint1_linear_2689_198684)"/>
</g>
<g filter="url(#filter4_f_2689_198684)">
<path d="M443.164 -104.601C442.394 -103.346 442.788 -101.704 444.043 -100.934C445.299 -100.164 446.941 -100.557 447.711 -101.813C448.481 -103.068 448.087 -104.71 446.832 -105.48C445.576 -106.25 443.934 -105.857 443.164 -104.601ZM466.606 34.4154C451.787 11.7484 427.869 -32.1097 445.922 -103.084L444.953 -103.33C426.806 -31.9867 450.863 12.162 465.769 34.9626L466.606 34.4154Z" fill="url(#paint2_linear_2689_198684)"/>
</g>
<g filter="url(#filter5_f_2689_198684)">
<path d="M460.71 -34.8108C460.165 -33.4426 460.833 -31.8917 462.201 -31.3468C463.569 -30.8019 465.12 -31.4694 465.665 -32.8376C466.21 -34.2059 465.542 -35.7568 464.174 -36.3017C462.806 -36.8465 461.255 -36.1791 460.71 -34.8108ZM511.67 84.5799C492.914 66.3007 461.174 30.439 463.687 -33.8047L462.688 -33.8438C460.158 30.8093 492.126 66.9292 510.972 85.296L511.67 84.5799Z" fill="url(#paint3_linear_2689_198684)"/>
</g>
<g filter="url(#filter6_f_2689_198684)">
<path d="M553.139 -28.5783C553.106 -27.1059 554.273 -25.886 555.746 -25.8535C557.218 -25.821 558.438 -26.9883 558.471 -28.4607C558.503 -29.9331 557.336 -31.1531 555.863 -31.1855C554.391 -31.218 553.171 -30.0507 553.139 -28.5783ZM666.954 92.093C651.223 85.6004 632.792 77.1649 613.677 59.4841C594.559 41.8014 574.732 14.8465 556.265 -28.7147L555.344 -28.3244C573.854 15.3384 593.756 42.4201 612.998 60.2183C632.242 78.0185 650.802 86.5083 666.572 93.0174L666.954 92.093Z" fill="url(#paint4_linear_2689_198684)"/>
</g>
<g filter="url(#filter7_f_2689_198684)">
<path d="M552.504 15.6736C552.722 17.13 554.08 18.1332 555.537 17.9144C556.993 17.6956 557.997 16.3375 557.778 14.8811C557.559 13.4247 556.201 12.4214 554.744 12.6403C553.288 12.8591 552.285 14.2172 552.504 15.6736ZM656.683 93.1184C631.271 86.7814 585.784 71.7999 555.582 15.0425L554.699 15.5122C585.094 72.6313 630.907 87.7212 656.441 94.0886L656.683 93.1184Z" fill="url(#paint5_linear_2689_198684)"/>
</g>
<g filter="url(#filter8_f_2689_198684)">
<path d="M400.835 -50.5744L400.342 -50.4885L400.835 -50.5744ZM415.077 -237.235C415.077 -238.708 413.883 -239.902 412.41 -239.902C410.938 -239.902 409.744 -238.708 409.744 -237.235C409.744 -235.763 410.938 -234.569 412.41 -234.569C413.883 -234.569 415.077 -235.763 415.077 -237.235ZM500.689 108.752C471.394 85.6342 417.291 40.8038 401.327 -50.6604L400.342 -50.4885C416.371 41.3468 470.717 86.374 500.069 109.537L500.689 108.752ZM401.327 -50.6604C388.53 -123.979 402.229 -205.999 412.883 -237.073L411.937 -237.398C401.236 -206.185 387.513 -123.993 400.342 -50.4885L401.327 -50.6604Z" fill="url(#paint6_linear_2689_198684)"/>
</g>
<g filter="url(#filter9_f_2689_198684)">
<path d="M558.534 317.334C557.143 316.848 555.622 317.582 555.137 318.972C554.651 320.363 555.385 321.883 556.775 322.369C558.165 322.855 559.686 322.121 560.172 320.731C560.657 319.341 559.924 317.82 558.534 317.334ZM453.929 435.505C472.409 382.603 510.852 342.371 557.867 320.304L557.442 319.399C510.194 341.575 471.557 382.009 452.985 435.176L453.929 435.505Z" fill="url(#paint7_linear_2689_198684)"/>
</g>
<g filter="url(#filter10_f_2689_198684)">
<path d="M525.498 280.354C524.054 280.065 522.649 281.001 522.36 282.446C522.071 283.89 523.007 285.295 524.451 285.584C525.895 285.873 527.3 284.936 527.589 283.492C527.878 282.048 526.942 280.643 525.498 280.354ZM483.362 319.816C495.606 305.747 509.728 293.499 525.248 283.388L524.702 282.55C509.105 292.711 494.913 305.021 482.607 319.159L483.362 319.816Z" fill="url(#paint8_linear_2689_198684)"/>
</g>
<g filter="url(#filter11_f_2689_198684)">
<path d="M481.591 317.99C480.134 318.204 479.126 319.559 479.34 321.016C479.554 322.473 480.908 323.481 482.366 323.267C483.823 323.054 484.831 321.699 484.617 320.242C484.403 318.785 483.049 317.777 481.591 317.99ZM411.14 521.207C400.464 448.448 428.489 377.115 482.339 320.975L481.618 320.283C427.597 376.6 399.422 448.23 410.15 521.352L411.14 521.207Z" fill="url(#paint9_linear_2689_198684)"/>
</g>
<g filter="url(#filter12_f_2689_198684)">
<path d="M661.625 255.868C660.383 256.661 660.019 258.309 660.811 259.551C661.604 260.792 663.252 261.156 664.494 260.364C665.735 259.572 666.099 257.923 665.307 256.682C664.515 255.44 662.866 255.076 661.625 255.868ZM453.772 555.318C410.855 472.956 432.817 367.483 529.629 305.695L529.091 304.853C431.854 366.912 409.722 472.946 452.885 555.78L453.772 555.318ZM529.629 305.695C570.398 279.676 624.662 261.245 663.093 258.615L663.025 257.617C624.403 260.261 569.98 278.756 529.091 304.853L529.629 305.695Z" fill="url(#paint10_linear_2689_198684)"/>
</g>
<g filter="url(#filter13_f_2689_198684)">
<path d="M496.094 30.3059C496.094 28.8331 494.9 27.6392 493.428 27.6392C491.955 27.6392 490.761 28.8331 490.761 30.3059C490.761 31.7787 491.955 32.9726 493.428 32.9726C494.9 32.9726 496.094 31.7787 496.094 30.3059ZM759.32 156.722C569.589 136.539 513.169 70.2774 493.878 30.0895L492.977 30.5223C512.463 71.1185 569.26 137.509 759.215 157.716L759.32 156.722Z" fill="url(#paint11_linear_2689_198684)"/>
</g>
<g filter="url(#filter14_f_2689_198684)">
<path d="M392.927 49.7505C393.313 51.1716 394.779 52.0104 396.2 51.624C397.621 51.2376 398.46 49.7723 398.073 48.3511C397.687 46.9299 396.221 46.0911 394.8 46.4775C393.379 46.864 392.54 48.3293 392.927 49.7505ZM623.597 185.693C596.158 182.832 563.6 178.189 525.725 159.477C487.847 140.762 444.62 107.959 395.886 48.7331L395.114 49.3685C443.918 108.68 487.252 141.584 525.282 160.373C563.315 179.164 596.012 183.822 623.494 186.688L623.597 185.693Z" fill="url(#paint12_linear_2689_198684)"/>
</g>
<g filter="url(#filter15_f_2689_198684)">
<path d="M499.617 181.104C500.24 182.439 501.826 183.016 503.161 182.393C504.496 181.77 505.073 180.183 504.45 178.849C503.827 177.514 502.24 176.937 500.905 177.56C499.571 178.183 498.994 179.77 499.617 181.104ZM611.492 196.79C585.333 197.919 545.809 197.446 502.223 179.514L501.843 180.439C545.623 198.451 585.316 198.921 611.535 197.789L611.492 196.79Z" fill="url(#paint13_linear_2689_198684)"/>
</g>
<path d="M549.586 73.316C549.586 71.8433 548.392 70.6494 546.92 70.6494C545.447 70.6494 544.253 71.8433 544.253 73.316C544.253 74.7888 545.447 75.9827 546.92 75.9827C548.392 75.9827 549.586 74.7888 549.586 73.316ZM753.529 148.337C669.301 142.442 599.997 115.75 547.235 72.9278L546.604 73.7043C599.549 116.673 669.057 143.427 753.459 149.335L753.529 148.337Z" fill="url(#paint14_linear_2689_198684)"/>
<path d="M443.164 -104.601C442.394 -103.346 442.788 -101.704 444.043 -100.934C445.299 -100.164 446.941 -100.557 447.711 -101.813C448.481 -103.068 448.087 -104.71 446.832 -105.48C445.576 -106.25 443.934 -105.857 443.164 -104.601ZM466.606 34.4154C451.787 11.7484 427.869 -32.1097 445.922 -103.084L444.953 -103.33C426.806 -31.9867 450.863 12.162 465.769 34.9626L466.606 34.4154Z" fill="url(#paint15_linear_2689_198684)"/>
<path d="M460.71 -34.8108C460.165 -33.4426 460.833 -31.8917 462.201 -31.3468C463.569 -30.8019 465.12 -31.4694 465.665 -32.8376C466.21 -34.2059 465.542 -35.7568 464.174 -36.3017C462.806 -36.8465 461.255 -36.1791 460.71 -34.8108ZM511.67 84.5799C492.914 66.3007 461.174 30.439 463.687 -33.8047L462.688 -33.8438C460.158 30.8093 492.126 66.9292 510.972 85.296L511.67 84.5799Z" fill="url(#paint16_linear_2689_198684)"/>
<g filter="url(#filter16_f_2689_198684)">
<path d="M583.725 365.3C582.331 364.825 580.815 365.569 580.34 366.963C579.864 368.357 580.608 369.872 582.002 370.348C583.396 370.824 584.911 370.079 585.387 368.685C585.863 367.292 585.118 365.776 583.725 365.3ZM523.995 395.697C532.804 385.702 550.193 368.684 582.869 368.324L582.858 367.324C549.772 367.688 532.136 384.947 523.245 395.036L523.995 395.697Z" fill="url(#paint17_linear_2689_198684)"/>
</g>
<path d="M583.76 365.469C582.369 364.986 580.849 365.722 580.366 367.113C579.882 368.505 580.619 370.024 582.01 370.507C583.401 370.991 584.921 370.254 585.404 368.863C585.887 367.472 585.151 365.952 583.76 365.469ZM523.866 395.54C532.728 385.594 550.21 368.67 582.888 368.488L582.882 367.488C549.795 367.672 532.065 384.835 523.119 394.875L523.866 395.54Z" fill="url(#paint18_linear_2689_198684)"/>
<path d="M394.053 49.8078C394.435 51.2304 395.897 52.0743 397.32 51.6929C398.742 51.3114 399.586 49.849 399.205 48.4265C398.823 47.004 397.361 46.1601 395.938 46.5415C394.516 46.923 393.672 48.3853 394.053 49.8078ZM624.246 186.558C596.817 183.601 564.276 178.844 526.466 159.999C488.654 141.152 445.542 108.198 397.016 48.8008L396.242 49.4335C444.837 108.916 488.056 141.971 526.02 160.894C563.987 179.818 596.667 184.591 624.138 187.553L624.246 186.558Z" fill="url(#paint19_linear_2689_198684)"/>
<path d="M499.584 181.244C500.202 182.581 501.787 183.164 503.123 182.545C504.46 181.927 505.042 180.342 504.424 179.006C503.806 177.669 502.221 177.086 500.885 177.705C499.548 178.323 498.965 179.908 499.584 181.244ZM612.1 197.613C585.799 198.657 545.994 198.033 502.197 179.664L501.811 180.586C545.803 199.037 585.777 199.658 612.14 198.612L612.1 197.613Z" fill="url(#paint20_linear_2689_198684)"/>
<g filter="url(#filter17_f_2689_198684)">
<path d="M659.207 322.603C658.106 321.626 656.42 321.726 655.443 322.828C654.465 323.929 654.566 325.615 655.668 326.592C656.769 327.57 658.455 327.469 659.432 326.368C660.41 325.266 660.309 323.58 659.207 322.603ZM549.547 352.646C573.231 341.161 609.957 325.798 657.445 325.098L657.43 324.098C609.73 324.801 572.85 340.234 549.111 351.746L549.547 352.646Z" fill="url(#paint21_linear_2689_198684)"/>
</g>
<path d="M553.139 -28.5783C553.106 -27.1059 554.273 -25.886 555.746 -25.8535C557.218 -25.821 558.438 -26.9883 558.471 -28.4607C558.503 -29.9331 557.336 -31.1531 555.863 -31.1855C554.391 -31.218 553.171 -30.0507 553.139 -28.5783ZM666.954 92.093C651.223 85.6004 632.792 77.1649 613.677 59.4841C594.559 41.8014 574.732 14.8465 556.265 -28.7147L555.344 -28.3244C573.854 15.3384 593.756 42.4201 612.998 60.2183C632.242 78.0185 650.802 86.5083 666.572 93.0174L666.954 92.093Z" fill="url(#paint22_linear_2689_198684)"/>
<path d="M552.504 15.6736C552.722 17.13 554.08 18.1332 555.537 17.9144C556.993 17.6956 557.997 16.3375 557.778 14.8811C557.559 13.4247 556.201 12.4214 554.744 12.6403C553.288 12.8591 552.285 14.2172 552.504 15.6736ZM656.683 93.1184C631.271 86.7814 585.784 71.7999 555.582 15.0425L554.699 15.5122C585.094 72.6313 630.907 87.7212 656.441 94.0886L656.683 93.1184Z" fill="url(#paint23_linear_2689_198684)"/>
<g filter="url(#filter18_f_2689_198684)">
<path d="M541.024 187.228C542.143 188.186 543.826 188.057 544.785 186.938C545.743 185.82 545.613 184.137 544.495 183.178C543.377 182.22 541.693 182.35 540.735 183.468C539.777 184.586 539.906 186.27 541.024 187.228ZM613.794 195.146C593.678 197.162 569.907 195.156 542.94 184.737L542.58 185.67C569.698 196.147 593.627 198.173 613.894 196.141L613.794 195.146Z" fill="url(#paint24_linear_2689_198684)"/>
</g>
<path d="M541.024 187.228C542.143 188.186 543.826 188.057 544.785 186.938C545.743 185.82 545.613 184.137 544.495 183.178C543.377 182.22 541.693 182.35 540.735 183.468C539.777 184.586 539.906 186.27 541.024 187.228ZM613.794 195.146C593.678 197.162 569.907 195.156 542.94 184.737L542.58 185.67C569.698 196.147 593.627 198.173 613.894 196.141L613.794 195.146Z" fill="url(#paint25_linear_2689_198684)"/>
<g filter="url(#filter19_f_2689_198684)">
<path d="M618.836 333.708C617.428 333.277 615.937 334.07 615.506 335.478C615.076 336.887 615.869 338.377 617.277 338.808C618.685 339.239 620.176 338.446 620.607 337.037C621.037 335.629 620.245 334.138 618.836 333.708ZM548.982 355.583C566.608 345.682 589.195 338.005 618.078 336.757L618.035 335.758C588.99 337.013 566.251 344.736 548.492 354.711L548.982 355.583Z" fill="url(#paint26_linear_2689_198684)"/>
</g>
<path d="M659.207 322.603C658.106 321.626 656.42 321.726 655.443 322.828C654.465 323.929 654.566 325.615 655.668 326.592C656.769 327.57 658.455 327.469 659.432 326.368C660.41 325.266 660.309 323.58 659.207 322.603ZM549.547 352.646C573.231 341.161 609.957 325.798 657.445 325.098L657.43 324.098C609.73 324.801 572.85 340.234 549.111 351.746L549.547 352.646Z" fill="url(#paint27_linear_2689_198684)"/>
<path d="M618.836 333.708C617.428 333.277 615.937 334.07 615.506 335.478C615.076 336.887 615.869 338.377 617.277 338.808C618.685 339.239 620.176 338.446 620.607 337.037C621.037 335.629 620.245 334.138 618.836 333.708ZM548.982 355.583C566.608 345.682 589.195 338.005 618.078 336.757L618.035 335.758C588.99 337.013 566.251 344.736 548.492 354.711L548.982 355.583Z" fill="url(#paint28_linear_2689_198684)"/>
<path d="M400.835 -50.5744L400.342 -50.4885L400.835 -50.5744ZM415.077 -237.235C415.077 -238.708 413.883 -239.902 412.41 -239.902C410.938 -239.902 409.744 -238.708 409.744 -237.235C409.744 -235.763 410.938 -234.569 412.41 -234.569C413.883 -234.569 415.077 -235.763 415.077 -237.235ZM500.689 108.752C471.394 85.6342 417.291 40.8038 401.327 -50.6604L400.342 -50.4885C416.371 41.3468 470.717 86.374 500.069 109.537L500.689 108.752ZM401.327 -50.6604C388.53 -123.979 402.229 -205.999 412.883 -237.073L411.937 -237.398C401.236 -206.185 387.513 -123.993 400.342 -50.4885L401.327 -50.6604Z" fill="url(#paint29_linear_2689_198684)"/>
<path d="M558.842 317.604C557.454 317.111 555.929 317.837 555.436 319.225C554.943 320.613 555.669 322.137 557.057 322.63C558.445 323.123 559.969 322.397 560.462 321.009C560.955 319.622 560.229 318.097 558.842 317.604ZM453.633 435.238C472.384 382.431 511.033 342.397 558.159 320.571L557.739 319.663C510.379 341.598 471.535 381.833 452.691 434.904L453.633 435.238Z" fill="url(#paint30_linear_2689_198684)"/>
<path d="M525.129 281.396C523.686 281.099 522.276 282.028 521.98 283.471C521.683 284.913 522.612 286.323 524.055 286.62C525.497 286.916 526.907 285.988 527.204 284.545C527.5 283.102 526.571 281.692 525.129 281.396ZM482.784 320.633C495.103 306.63 509.289 294.457 524.862 284.428L524.321 283.587C508.67 293.665 494.414 305.9 482.033 319.973L482.784 320.633Z" fill="url(#paint31_linear_2689_198684)"/>
<path d="M481.023 318.797C479.565 319.003 478.55 320.352 478.756 321.811C478.962 323.269 480.311 324.284 481.77 324.078C483.228 323.872 484.243 322.523 484.037 321.064C483.831 319.606 482.482 318.591 481.023 318.797ZM409.494 521.636C399.205 448.822 427.608 377.638 481.755 321.786L481.037 321.089C426.719 377.119 398.163 448.599 408.503 521.776L409.494 521.636Z" fill="url(#paint32_linear_2689_198684)"/>
<path d="M661.383 255.672C660.143 256.467 659.782 258.116 660.576 259.356C661.371 260.596 663.02 260.958 664.26 260.163C665.5 259.369 665.862 257.719 665.067 256.479C664.273 255.239 662.623 254.878 661.383 255.672ZM454.056 555.486C410.995 473.2 432.772 367.689 529.475 305.731L528.936 304.889C431.808 367.119 409.862 473.192 453.17 555.95L454.056 555.486ZM529.475 305.731C570.198 279.64 624.43 261.114 662.857 258.417L662.787 257.419C624.169 260.13 569.779 278.721 528.936 304.889L529.475 305.731Z" fill="url(#paint33_linear_2689_198684)"/>
<path d="M496.094 30.303C496.094 28.8303 494.9 27.6363 493.428 27.6363C491.955 27.6363 490.761 28.8303 490.761 30.303C490.761 31.7758 491.955 32.9697 493.428 32.9697C494.9 32.9697 496.094 31.7758 496.094 30.303ZM636.082 134.828C546.003 104.02 507.673 58.8252 493.878 30.0866L492.977 30.5194C506.907 59.5413 545.473 104.896 635.758 135.774L636.082 134.828Z" fill="url(#paint34_linear_2689_198684)"/>
<g style="mix-blend-mode:color-dodge" filter="url(#filter20_f_2689_198684)">
<ellipse cx="542.76" cy="367.828" rx="177.119" ry="137.254" transform="rotate(-180 542.76 367.828)" fill="#AA910D"/>
</g>
<g style="mix-blend-mode:color-dodge" filter="url(#filter21_f_2689_198684)">
<ellipse cx="814.101" cy="150.312" rx="177.119" ry="137.254" transform="rotate(-180 814.101 150.312)" fill="#93960D"/>
</g>
<circle cx="543.936" cy="218.816" r="2.98438" fill="#E1E29D"/>
<circle cx="656.562" cy="224.625" r="2.98438" fill="#E1E29D"/>
<circle cx="465.08" cy="159.844" r="2.98438" fill="#E1E29D"/>
<circle cx="653.578" cy="161.566" r="2.98438" fill="#E1E29D"/>
<circle cx="522.381" cy="122.816" r="2.98438" fill="#E1E29D"/>
<circle cx="524.404" cy="113.826" r="1.2832" fill="#E1E29D"/>
<circle cx="548.203" cy="106.779" r="1.2832" fill="#E1E29D"/>
<circle cx="635.697" cy="154.576" r="1.2832" fill="#E1E29D"/>
<circle cx="521.838" cy="239.084" r="1.2832" fill="#E1E29D"/>
<circle cx="556.93" cy="214.549" r="1.2832" fill="#E1E29D"/>
<g filter="url(#filter22_f_2689_198684)">
<circle cx="543.936" cy="218.816" r="2.98438" fill="#E5BBFF" fill-opacity="0.54"/>
</g>
<g filter="url(#filter23_f_2689_198684)">
<circle cx="656.562" cy="224.625" r="2.98438" fill="#E5BBFF" fill-opacity="0.54"/>
</g>
<g filter="url(#filter24_f_2689_198684)">
<circle cx="643.363" cy="358.227" r="2.98438" fill="#E5BBFF" fill-opacity="0.54"/>
</g>
<g filter="url(#filter25_f_2689_198684)">
<circle cx="621.918" cy="301.835" r="2.98438" transform="rotate(-117.824 621.918 301.835)" fill="#E5BBFF" fill-opacity="0.54"/>
</g>
<g filter="url(#filter26_f_2689_198684)">
<circle cx="650.594" cy="344.715" r="1.24609" fill="#E5BBFF" fill-opacity="0.54"/>
</g>
<g filter="url(#filter27_f_2689_198684)">
<circle cx="599.85" cy="291.644" r="1.24609" transform="rotate(-117.824 599.85 291.644)" fill="#E5BBFF" fill-opacity="0.54"/>
</g>
<circle cx="643.363" cy="358.227" r="2.98438" fill="#E4E59E"/>
<circle cx="621.918" cy="301.835" r="2.98438" transform="rotate(-117.824 621.918 301.835)" fill="#E4E59E"/>
<circle cx="650.594" cy="344.715" r="1.24609" fill="#E4E59E"/>
<circle cx="599.85" cy="291.644" r="1.24609" transform="rotate(-117.824 599.85 291.644)" fill="#9ED0E5"/>
<g filter="url(#filter28_f_2689_198684)">
<circle cx="465.08" cy="159.082" r="2.98438" fill="#E5BBFF" fill-opacity="0.54"/>
</g>
<g filter="url(#filter29_f_2689_198684)">
<circle cx="653.578" cy="161.566" r="2.98438" fill="#E5BBFF" fill-opacity="0.54"/>
</g>
<g filter="url(#filter30_f_2689_198684)">
<circle cx="522.381" cy="122.816" r="2.98438" fill="#E5BBFF" fill-opacity="0.54"/>
</g>
<g filter="url(#filter31_f_2689_198684)">
<circle cx="524.404" cy="113.826" r="1.2832" fill="#E5BBFF" fill-opacity="0.54"/>
</g>
<g filter="url(#filter32_f_2689_198684)">
<circle cx="548.203" cy="106.779" r="1.2832" fill="#E5BBFF" fill-opacity="0.54"/>
</g>
<g filter="url(#filter33_f_2689_198684)">
<circle cx="635.697" cy="154.576" r="1.2832" fill="#E5BBFF" fill-opacity="0.54"/>
</g>
<g filter="url(#filter34_f_2689_198684)">
<circle cx="521.838" cy="239.084" r="1.2832" fill="#E5BBFF" fill-opacity="0.54"/>
</g>
<g filter="url(#filter35_f_2689_198684)">
<circle cx="422.266" cy="372.006" r="1.2832" fill="#E5BBFF" fill-opacity="0.54"/>
</g>
<circle cx="422.266" cy="372.006" r="1.2832" fill="white" fill-opacity="0.54"/>
<g filter="url(#filter36_f_2689_198684)">
<circle cx="556.93" cy="214.549" r="1.2832" fill="#E5BBFF" fill-opacity="0.54"/>
</g>
</g>
<defs>
<filter id="filter0_f_2689_198684" x="-636.203" y="-171.502" width="1233.83" height="1116.91" filterUnits="userSpaceOnUse" color-interpolation-filters="sRGB">
<feFlood flood-opacity="0" result="BackgroundImageFix"/>
<feBlend mode="normal" in="SourceGraphic" in2="BackgroundImageFix" result="shape"/>
<feGaussianBlur stdDeviation="143.112" result="effect1_foregroundBlur_2689_198684"/>
</filter>
<filter id="filter1_f_2689_198684" x="247.12" y="-392.837" width="816.979" height="802.35" filterUnits="userSpaceOnUse" color-interpolation-filters="sRGB">
<feFlood flood-opacity="0" result="BackgroundImageFix"/>
<feBlend mode="normal" in="SourceGraphic" in2="BackgroundImageFix" result="shape"/>
<feGaussianBlur stdDeviation="71.11" result="effect1_foregroundBlur_2689_198684"/>
</filter>
<filter id="filter2_f_2689_198684" x="304.039" y="-581.131" width="1045.1" height="1473.98" filterUnits="userSpaceOnUse" color-interpolation-filters="sRGB">
<feFlood flood-opacity="0" result="BackgroundImageFix"/>
<feBlend mode="normal" in="SourceGraphic" in2="BackgroundImageFix" result="shape"/>
<feGaussianBlur stdDeviation="43.2316" result="effect1_foregroundBlur_2689_198684"/>
</filter>
<filter id="filter3_f_2689_198684" x="539.703" y="66.0977" width="218.978" height="89.3983" filterUnits="userSpaceOnUse" color-interpolation-filters="sRGB">
<feFlood flood-opacity="0" result="BackgroundImageFix"/>
<feBlend mode="normal" in="SourceGraphic" in2="BackgroundImageFix" result="shape"/>
<feGaussianBlur stdDeviation="2.27535" result="effect1_foregroundBlur_2689_198684"/>
</filter>
<filter id="filter4_f_2689_198684" x="433.9" y="-110.426" width="37.2557" height="149.937" filterUnits="userSpaceOnUse" color-interpolation-filters="sRGB">
<feFlood flood-opacity="0" result="BackgroundImageFix"/>
<feBlend mode="normal" in="SourceGraphic" in2="BackgroundImageFix" result="shape"/>
<feGaussianBlur stdDeviation="2.27535" result="effect1_foregroundBlur_2689_198684"/>
</filter>
<filter id="filter5_f_2689_198684" x="455.969" y="-41.0429" width="60.2518" height="130.89" filterUnits="userSpaceOnUse" color-interpolation-filters="sRGB">
<feFlood flood-opacity="0" result="BackgroundImageFix"/>
<feBlend mode="normal" in="SourceGraphic" in2="BackgroundImageFix" result="shape"/>
<feGaussianBlur stdDeviation="2.27535" result="effect1_foregroundBlur_2689_198684"/>
</filter>
<filter id="filter6_f_2689_198684" x="548.588" y="-35.7382" width="122.916" height="133.305" filterUnits="userSpaceOnUse" color-interpolation-filters="sRGB">
<feFlood flood-opacity="0" result="BackgroundImageFix"/>
<feBlend mode="normal" in="SourceGraphic" in2="BackgroundImageFix" result="shape"/>
<feGaussianBlur stdDeviation="2.27535" result="effect1_foregroundBlur_2689_198684"/>
</filter>
<filter id="filter7_f_2689_198684" x="547.922" y="8.05868" width="113.312" height="90.5819" filterUnits="userSpaceOnUse" color-interpolation-filters="sRGB">
<feFlood flood-opacity="0" result="BackgroundImageFix"/>
<feBlend mode="normal" in="SourceGraphic" in2="BackgroundImageFix" result="shape"/>
<feGaussianBlur stdDeviation="2.27535" result="effect1_foregroundBlur_2689_198684"/>
</filter>
<filter id="filter8_f_2689_198684" x="390.608" y="-244.453" width="114.633" height="358.539" filterUnits="userSpaceOnUse" color-interpolation-filters="sRGB">
<feFlood flood-opacity="0" result="BackgroundImageFix"/>
<feBlend mode="normal" in="SourceGraphic" in2="BackgroundImageFix" result="shape"/>
<feGaussianBlur stdDeviation="2.27535" result="effect1_foregroundBlur_2689_198684"/>
</filter>
<filter id="filter9_f_2689_198684" x="448.434" y="312.633" width="116.439" height="127.422" filterUnits="userSpaceOnUse" color-interpolation-filters="sRGB">
<feFlood flood-opacity="0" result="BackgroundImageFix"/>
<feBlend mode="normal" in="SourceGraphic" in2="BackgroundImageFix" result="shape"/>
<feGaussianBlur stdDeviation="2.27535" result="effect1_foregroundBlur_2689_198684"/>
</filter>
<filter id="filter10_f_2689_198684" x="478.057" y="275.75" width="54.1365" height="48.617" filterUnits="userSpaceOnUse" color-interpolation-filters="sRGB">
<feFlood flood-opacity="0" result="BackgroundImageFix"/>
<feBlend mode="normal" in="SourceGraphic" in2="BackgroundImageFix" result="shape"/>
<feGaussianBlur stdDeviation="2.27535" result="effect1_foregroundBlur_2689_198684"/>
</filter>
<filter id="filter11_f_2689_198684" x="403.346" y="313.41" width="85.8514" height="212.492" filterUnits="userSpaceOnUse" color-interpolation-filters="sRGB">
<feFlood flood-opacity="0" result="BackgroundImageFix"/>
<feBlend mode="normal" in="SourceGraphic" in2="BackgroundImageFix" result="shape"/>
<feGaussianBlur stdDeviation="2.27535" result="effect1_foregroundBlur_2689_198684"/>
</filter>
<filter id="filter12_f_2689_198684" x="427.277" y="250.899" width="243" height="309.433" filterUnits="userSpaceOnUse" color-interpolation-filters="sRGB">
<feFlood flood-opacity="0" result="BackgroundImageFix"/>
<feBlend mode="normal" in="SourceGraphic" in2="BackgroundImageFix" result="shape"/>
<feGaussianBlur stdDeviation="2.27535" result="effect1_foregroundBlur_2689_198684"/>
</filter>
<filter id="filter13_f_2689_198684" x="486.211" y="23.0899" width="277.66" height="139.176" filterUnits="userSpaceOnUse" color-interpolation-filters="sRGB">
<feFlood flood-opacity="0" result="BackgroundImageFix"/>
<feBlend mode="normal" in="SourceGraphic" in2="BackgroundImageFix" result="shape"/>
<feGaussianBlur stdDeviation="2.27535" result="effect1_foregroundBlur_2689_198684"/>
</filter>
<filter id="filter14_f_2689_198684" x="388.281" y="41.8321" width="239.867" height="149.406" filterUnits="userSpaceOnUse" color-interpolation-filters="sRGB">
<feFlood flood-opacity="0" result="BackgroundImageFix"/>
<feBlend mode="normal" in="SourceGraphic" in2="BackgroundImageFix" result="shape"/>
<feGaussianBlur stdDeviation="2.27535" result="effect1_foregroundBlur_2689_198684"/>
</filter>
<filter id="filter15_f_2689_198684" x="494.815" y="172.758" width="121.271" height="29.9451" filterUnits="userSpaceOnUse" color-interpolation-filters="sRGB">
<feFlood flood-opacity="0" result="BackgroundImageFix"/>
<feBlend mode="normal" in="SourceGraphic" in2="BackgroundImageFix" result="shape"/>
<feGaussianBlur stdDeviation="2.27535" result="effect1_foregroundBlur_2689_198684"/>
</filter>
<filter id="filter16_f_2689_198684" x="518.695" y="360.606" width="71.3865" height="39.6405" filterUnits="userSpaceOnUse" color-interpolation-filters="sRGB">
<feFlood flood-opacity="0" result="BackgroundImageFix"/>
<feBlend mode="normal" in="SourceGraphic" in2="BackgroundImageFix" result="shape"/>
<feGaussianBlur stdDeviation="2.27535" result="effect1_foregroundBlur_2689_198684"/>
</filter>
<filter id="filter17_f_2689_198684" x="545.111" y="317.93" width="118.992" height="38.7148" filterUnits="userSpaceOnUse" color-interpolation-filters="sRGB">
<feFlood flood-opacity="0" result="BackgroundImageFix"/>
<feBlend mode="normal" in="SourceGraphic" in2="BackgroundImageFix" result="shape"/>
<feGaussianBlur stdDeviation="2" result="effect1_foregroundBlur_2689_198684"/>
</filter>
<filter id="filter18_f_2689_198684" x="536.094" y="178.535" width="81.8008" height="22.3125" filterUnits="userSpaceOnUse" color-interpolation-filters="sRGB">
<feFlood flood-opacity="0" result="BackgroundImageFix"/>
<feBlend mode="normal" in="SourceGraphic" in2="BackgroundImageFix" result="shape"/>
<feGaussianBlur stdDeviation="2" result="effect1_foregroundBlur_2689_198684"/>
</filter>
<filter id="filter19_f_2689_198684" x="544.492" y="329.59" width="80.2324" height="29.9922" filterUnits="userSpaceOnUse" color-interpolation-filters="sRGB">
<feFlood flood-opacity="0" result="BackgroundImageFix"/>
<feBlend mode="normal" in="SourceGraphic" in2="BackgroundImageFix" result="shape"/>
<feGaussianBlur stdDeviation="2" result="effect1_foregroundBlur_2689_198684"/>
</filter>
<filter id="filter20_f_2689_198684" x="106.251" y="-28.8154" width="873.018" height="793.287" filterUnits="userSpaceOnUse" color-interpolation-filters="sRGB">
<feFlood flood-opacity="0" result="BackgroundImageFix"/>
<feBlend mode="normal" in="SourceGraphic" in2="BackgroundImageFix" result="shape"/>
<feGaussianBlur stdDeviation="129.695" result="effect1_foregroundBlur_2689_198684"/>
</filter>
<filter id="filter21_f_2689_198684" x="377.593" y="-246.331" width="873.018" height="793.287" filterUnits="userSpaceOnUse" color-interpolation-filters="sRGB">
<feFlood flood-opacity="0" result="BackgroundImageFix"/>
<feBlend mode="normal" in="SourceGraphic" in2="BackgroundImageFix" result="shape"/>
<feGaussianBlur stdDeviation="129.695" result="effect1_foregroundBlur_2689_198684"/>
</filter>
<filter id="filter22_f_2689_198684" x="533.951" y="208.832" width="19.9688" height="19.9688" filterUnits="userSpaceOnUse" color-interpolation-filters="sRGB">
<feFlood flood-opacity="0" result="BackgroundImageFix"/>
<feBlend mode="normal" in="SourceGraphic" in2="BackgroundImageFix" result="shape"/>
<feGaussianBlur stdDeviation="3.5" result="effect1_foregroundBlur_2689_198684"/>
</filter>
<filter id="filter23_f_2689_198684" x="646.578" y="214.641" width="19.9688" height="19.9688" filterUnits="userSpaceOnUse" color-interpolation-filters="sRGB">
<feFlood flood-opacity="0" result="BackgroundImageFix"/>
<feBlend mode="normal" in="SourceGraphic" in2="BackgroundImageFix" result="shape"/>
<feGaussianBlur stdDeviation="3.5" result="effect1_foregroundBlur_2689_198684"/>
</filter>
<filter id="filter24_f_2689_198684" x="633.379" y="348.242" width="19.9688" height="19.9688" filterUnits="userSpaceOnUse" color-interpolation-filters="sRGB">
<feFlood flood-opacity="0" result="BackgroundImageFix"/>
<feBlend mode="normal" in="SourceGraphic" in2="BackgroundImageFix" result="shape"/>
<feGaussianBlur stdDeviation="3.5" result="effect1_foregroundBlur_2689_198684"/>
</filter>
<filter id="filter25_f_2689_198684" x="611.934" y="291.852" width="19.9688" height="19.9688" filterUnits="userSpaceOnUse" color-interpolation-filters="sRGB">
<feFlood flood-opacity="0" result="BackgroundImageFix"/>
<feBlend mode="normal" in="SourceGraphic" in2="BackgroundImageFix" result="shape"/>
<feGaussianBlur stdDeviation="3.5" result="effect1_foregroundBlur_2689_198684"/>
</filter>
<filter id="filter26_f_2689_198684" x="642.348" y="336.469" width="16.4922" height="16.4922" filterUnits="userSpaceOnUse" color-interpolation-filters="sRGB">
<feFlood flood-opacity="0" result="BackgroundImageFix"/>
<feBlend mode="normal" in="SourceGraphic" in2="BackgroundImageFix" result="shape"/>
<feGaussianBlur stdDeviation="3.5" result="effect1_foregroundBlur_2689_198684"/>
</filter>
<filter id="filter27_f_2689_198684" x="591.604" y="283.398" width="16.4941" height="16.4922" filterUnits="userSpaceOnUse" color-interpolation-filters="sRGB">
<feFlood flood-opacity="0" result="BackgroundImageFix"/>
<feBlend mode="normal" in="SourceGraphic" in2="BackgroundImageFix" result="shape"/>
<feGaussianBlur stdDeviation="3.5" result="effect1_foregroundBlur_2689_198684"/>
</filter>
<filter id="filter28_f_2689_198684" x="455.096" y="149.098" width="19.9688" height="19.9688" filterUnits="userSpaceOnUse" color-interpolation-filters="sRGB">
<feFlood flood-opacity="0" result="BackgroundImageFix"/>
<feBlend mode="normal" in="SourceGraphic" in2="BackgroundImageFix" result="shape"/>
<feGaussianBlur stdDeviation="3.5" result="effect1_foregroundBlur_2689_198684"/>
</filter>
<filter id="filter29_f_2689_198684" x="643.594" y="151.582" width="19.9688" height="19.9688" filterUnits="userSpaceOnUse" color-interpolation-filters="sRGB">
<feFlood flood-opacity="0" result="BackgroundImageFix"/>
<feBlend mode="normal" in="SourceGraphic" in2="BackgroundImageFix" result="shape"/>
<feGaussianBlur stdDeviation="3.5" result="effect1_foregroundBlur_2689_198684"/>
</filter>
<filter id="filter30_f_2689_198684" x="512.396" y="112.832" width="19.9688" height="19.9688" filterUnits="userSpaceOnUse" color-interpolation-filters="sRGB">
<feFlood flood-opacity="0" result="BackgroundImageFix"/>
<feBlend mode="normal" in="SourceGraphic" in2="BackgroundImageFix" result="shape"/>
<feGaussianBlur stdDeviation="3.5" result="effect1_foregroundBlur_2689_198684"/>
</filter>
<filter id="filter31_f_2689_198684" x="516.121" y="105.543" width="16.5664" height="16.5664" filterUnits="userSpaceOnUse" color-interpolation-filters="sRGB">
<feFlood flood-opacity="0" result="BackgroundImageFix"/>
<feBlend mode="normal" in="SourceGraphic" in2="BackgroundImageFix" result="shape"/>
<feGaussianBlur stdDeviation="3.5" result="effect1_foregroundBlur_2689_198684"/>
</filter>
<filter id="filter32_f_2689_198684" x="539.92" y="98.4961" width="16.5664" height="16.5664" filterUnits="userSpaceOnUse" color-interpolation-filters="sRGB">
<feFlood flood-opacity="0" result="BackgroundImageFix"/>
<feBlend mode="normal" in="SourceGraphic" in2="BackgroundImageFix" result="shape"/>
<feGaussianBlur stdDeviation="3.5" result="effect1_foregroundBlur_2689_198684"/>
</filter>
<filter id="filter33_f_2689_198684" x="627.414" y="146.293" width="16.5664" height="16.5664" filterUnits="userSpaceOnUse" color-interpolation-filters="sRGB">
<feFlood flood-opacity="0" result="BackgroundImageFix"/>
<feBlend mode="normal" in="SourceGraphic" in2="BackgroundImageFix" result="shape"/>
<feGaussianBlur stdDeviation="3.5" result="effect1_foregroundBlur_2689_198684"/>
</filter>
<filter id="filter34_f_2689_198684" x="513.555" y="230.801" width="16.5664" height="16.5664" filterUnits="userSpaceOnUse" color-interpolation-filters="sRGB">
<feFlood flood-opacity="0" result="BackgroundImageFix"/>
<feBlend mode="normal" in="SourceGraphic" in2="BackgroundImageFix" result="shape"/>
<feGaussianBlur stdDeviation="3.5" result="effect1_foregroundBlur_2689_198684"/>
</filter>
<filter id="filter35_f_2689_198684" x="413.982" y="363.723" width="16.5664" height="16.5664" filterUnits="userSpaceOnUse" color-interpolation-filters="sRGB">
<feFlood flood-opacity="0" result="BackgroundImageFix"/>
<feBlend mode="normal" in="SourceGraphic" in2="BackgroundImageFix" result="shape"/>
<feGaussianBlur stdDeviation="3.5" result="effect1_foregroundBlur_2689_198684"/>
</filter>
<filter id="filter36_f_2689_198684" x="548.646" y="206.266" width="16.5664" height="16.5664" filterUnits="userSpaceOnUse" color-interpolation-filters="sRGB">
<feFlood flood-opacity="0" result="BackgroundImageFix"/>
<feBlend mode="normal" in="SourceGraphic" in2="BackgroundImageFix" result="shape"/>
<feGaussianBlur stdDeviation="3.5" result="effect1_foregroundBlur_2689_198684"/>
</filter>
<linearGradient id="paint0_linear_2689_198684" x1="740.512" y1="643.707" x2="740.269" y2="-235.023" gradientUnits="userSpaceOnUse">
<stop stop-color="#FDE046"/>
<stop offset="0.494792" stop-color="#DBFF00" stop-opacity="0"/>
<stop offset="1" stop-color="#FFD600"/>
</linearGradient>
<linearGradient id="paint1_linear_2689_198684" x1="761.508" y1="157.686" x2="538.485" y2="59.0092" gradientUnits="userSpaceOnUse">
<stop stop-color="#989BC7" stop-opacity="0"/>
<stop offset="0.949988" stop-color="#B9BAD0"/>
<stop offset="1" stop-color="#D9D9D9" stop-opacity="0"/>
</linearGradient>
<linearGradient id="paint2_linear_2689_198684" x1="443.766" y1="-107.002" x2="509.781" y2="-49.9321" gradientUnits="userSpaceOnUse">
<stop stop-color="#989BC7" stop-opacity="0"/>
<stop offset="0.5" stop-color="#B9BAD0"/>
<stop offset="1" stop-color="#D9D9D9" stop-opacity="0"/>
</linearGradient>
<linearGradient id="paint3_linear_2689_198684" x1="460.818" y1="-36.9722" x2="533.37" y2="8.89382" gradientUnits="userSpaceOnUse">
<stop stop-color="#989BC7" stop-opacity="0"/>
<stop offset="0.5" stop-color="#B9BAD0"/>
<stop offset="1" stop-color="#D9D9D9" stop-opacity="0"/>
</linearGradient>
<linearGradient id="paint4_linear_2689_198684" x1="551.55" y1="-31.2388" x2="659.193" y2="-8.66061" gradientUnits="userSpaceOnUse">
<stop stop-color="#989BC7" stop-opacity="0"/>
<stop offset="0.5" stop-color="#B9BAD0"/>
<stop offset="1" stop-color="#D9D9D9" stop-opacity="0"/>
</linearGradient>
<linearGradient id="paint5_linear_2689_198684" x1="551.507" y1="13.7525" x2="637.288" y2="16.8092" gradientUnits="userSpaceOnUse">
<stop stop-color="#989BC7" stop-opacity="0"/>
<stop offset="0.5" stop-color="#B9BAD0"/>
<stop offset="1" stop-color="#D9D9D9" stop-opacity="0"/>
</linearGradient>
<linearGradient id="paint6_linear_2689_198684" x1="504.355" y1="116.81" x2="401.571" y2="110.749" gradientUnits="userSpaceOnUse">
<stop stop-color="#989BC7" stop-opacity="0"/>
<stop offset="0.5" stop-color="#B9BAD0"/>
<stop offset="1" stop-color="#D9D9D9" stop-opacity="0"/>
</linearGradient>
<linearGradient id="paint7_linear_2689_198684" x1="560.709" y1="315.151" x2="471.484" y2="407.084" gradientUnits="userSpaceOnUse">
<stop stop-color="#989BC7" stop-opacity="0"/>
<stop offset="0.5" stop-color="#B9BAD0"/>
<stop offset="1" stop-color="#D9D9D9" stop-opacity="0"/>
</linearGradient>
<linearGradient id="paint8_linear_2689_198684" x1="526.041" y1="281.476" x2="507.937" y2="319.443" gradientUnits="userSpaceOnUse">
<stop stop-color="#989BC7" stop-opacity="0"/>
<stop offset="0.5" stop-color="#B9BAD0"/>
<stop offset="1" stop-color="#D9D9D9" stop-opacity="0"/>
</linearGradient>
<linearGradient id="paint9_linear_2689_198684" x1="483.125" y1="313.239" x2="447.375" y2="483.45" gradientUnits="userSpaceOnUse">
<stop stop-color="#989BC7" stop-opacity="0"/>
<stop offset="0.5" stop-color="#B9BAD0"/>
<stop offset="1" stop-color="#D9D9D9" stop-opacity="0"/>
</linearGradient>
<linearGradient id="paint10_linear_2689_198684" x1="648.557" y1="221.538" x2="724.034" y2="370.167" gradientUnits="userSpaceOnUse">
<stop stop-color="#989BC7" stop-opacity="0"/>
<stop offset="0.5" stop-color="#B9BAD0"/>
<stop offset="1" stop-color="#D9D9D9" stop-opacity="0"/>
</linearGradient>
<linearGradient id="paint11_linear_2689_198684" x1="706.815" y1="130.112" x2="584.46" y2="42.7523" gradientUnits="userSpaceOnUse">
<stop offset="0.270833" stop-color="#989BC7" stop-opacity="0"/>
<stop offset="1" stop-color="#B9BAD0"/>
</linearGradient>
<linearGradient id="paint12_linear_2689_198684" x1="501.08" y1="136.343" x2="596.978" y2="101.057" gradientUnits="userSpaceOnUse">
<stop stop-color="#B9BAD0"/>
<stop offset="0.453125" stop-color="#989BC7" stop-opacity="0"/>
</linearGradient>
<linearGradient id="paint13_linear_2689_198684" x1="510.716" y1="175.257" x2="579.771" y2="135.37" gradientUnits="userSpaceOnUse">
<stop stop-color="#B9BAD0"/>
<stop offset="0.453125" stop-color="#989BC7" stop-opacity="0"/>
</linearGradient>
<linearGradient id="paint14_linear_2689_198684" x1="761.508" y1="157.686" x2="597.116" y2="77.3805" gradientUnits="userSpaceOnUse">
<stop offset="0.666667" stop-color="#D9D9D9" stop-opacity="0"/>
<stop offset="1" stop-color="#989BC7"/>
</linearGradient>
<linearGradient id="paint15_linear_2689_198684" x1="443.766" y1="-107.002" x2="509.781" y2="-49.9321" gradientUnits="userSpaceOnUse">
<stop offset="0.401042" stop-color="#989BC7"/>
<stop offset="1" stop-color="#D9D9D9" stop-opacity="0"/>
</linearGradient>
<linearGradient id="paint16_linear_2689_198684" x1="460.818" y1="-36.9722" x2="533.37" y2="8.89382" gradientUnits="userSpaceOnUse">
<stop offset="0.401042" stop-color="#989BC7"/>
<stop offset="1" stop-color="#D9D9D9" stop-opacity="0"/>
</linearGradient>
<linearGradient id="paint17_linear_2689_198684" x1="584.406" y1="366.537" x2="562.904" y2="404.651" gradientUnits="userSpaceOnUse">
<stop stop-color="#989BC7" stop-opacity="0"/>
<stop offset="0.101621" stop-color="#B9BAD0"/>
<stop offset="1" stop-color="#D9D9D9" stop-opacity="0"/>
</linearGradient>
<linearGradient id="paint18_linear_2689_198684" x1="584.434" y1="366.71" x2="562.725" y2="404.706" gradientUnits="userSpaceOnUse">
<stop offset="0.401042" stop-color="#989BC7"/>
<stop offset="1" stop-color="#D9D9D9" stop-opacity="0"/>
</linearGradient>
<linearGradient id="paint19_linear_2689_198684" x1="390.071" y1="46.1856" x2="566.475" y2="32.2421" gradientUnits="userSpaceOnUse">
<stop offset="0.401042" stop-color="#989BC7"/>
<stop offset="1" stop-color="#D9D9D9" stop-opacity="0"/>
</linearGradient>
<linearGradient id="paint20_linear_2689_198684" x1="412.457" y1="121.614" x2="547.269" y2="87.4176" gradientUnits="userSpaceOnUse">
<stop offset="0.401042" stop-color="#989BC7"/>
<stop offset="1" stop-color="#D9D9D9" stop-opacity="0"/>
</linearGradient>
<linearGradient id="paint21_linear_2689_198684" x1="762.919" y1="342.368" x2="653.07" y2="427.673" gradientUnits="userSpaceOnUse">
<stop offset="0.401042" stop-color="#989BC7"/>
<stop offset="1" stop-color="#D9D9D9" stop-opacity="0"/>
</linearGradient>
<linearGradient id="paint22_linear_2689_198684" x1="552.427" y1="-31.3904" x2="659.345" y2="-9.14218" gradientUnits="userSpaceOnUse">
<stop offset="0.401042" stop-color="#989BC7"/>
<stop offset="1" stop-color="#D9D9D9" stop-opacity="0"/>
</linearGradient>
<linearGradient id="paint23_linear_2689_198684" x1="551.507" y1="13.7525" x2="637.288" y2="16.8092" gradientUnits="userSpaceOnUse">
<stop offset="0.401042" stop-color="#989BC7"/>
<stop offset="1" stop-color="#D9D9D9" stop-opacity="0"/>
</linearGradient>
<linearGradient id="paint24_linear_2689_198684" x1="539.014" y1="186.427" x2="583.377" y2="154.06" gradientUnits="userSpaceOnUse">
<stop stop-color="#989BC7"/>
<stop offset="1" stop-color="#D9D9D9" stop-opacity="0"/>
</linearGradient>
<linearGradient id="paint25_linear_2689_198684" x1="539.014" y1="186.427" x2="583.377" y2="154.06" gradientUnits="userSpaceOnUse">
<stop stop-color="#989BC7"/>
<stop offset="1" stop-color="#D9D9D9" stop-opacity="0"/>
</linearGradient>
<linearGradient id="paint26_linear_2689_198684" x1="620.999" y1="333.637" x2="593.303" y2="381.056" gradientUnits="userSpaceOnUse">
<stop stop-color="#989BC7"/>
<stop offset="1" stop-color="#D9D9D9" stop-opacity="0"/>
</linearGradient>
<linearGradient id="paint27_linear_2689_198684" x1="762.919" y1="342.368" x2="653.07" y2="427.673" gradientUnits="userSpaceOnUse">
<stop offset="0.401042" stop-color="#989BC7"/>
<stop offset="1" stop-color="#D9D9D9" stop-opacity="0"/>
</linearGradient>
<linearGradient id="paint28_linear_2689_198684" x1="620.999" y1="333.637" x2="593.303" y2="381.056" gradientUnits="userSpaceOnUse">
<stop stop-color="#989BC7"/>
<stop offset="1" stop-color="#D9D9D9" stop-opacity="0"/>
</linearGradient>
<linearGradient id="paint29_linear_2689_198684" x1="504.495" y1="116.81" x2="398.132" y2="110.319" gradientUnits="userSpaceOnUse">
<stop stop-color="#D9D9D9" stop-opacity="0"/>
<stop offset="1" stop-color="#989BC7"/>
</linearGradient>
<linearGradient id="paint30_linear_2689_198684" x1="561.028" y1="315.433" x2="471.333" y2="406.907" gradientUnits="userSpaceOnUse">
<stop offset="0.401042" stop-color="#989BC7"/>
<stop offset="1" stop-color="#D9D9D9" stop-opacity="0"/>
</linearGradient>
<linearGradient id="paint31_linear_2689_198684" x1="526.995" y1="278.943" x2="479.235" y2="321.823" gradientUnits="userSpaceOnUse">
<stop stop-color="#989BC7"/>
<stop offset="1" stop-color="#D9D9D9" stop-opacity="0"/>
</linearGradient>
<linearGradient id="paint32_linear_2689_198684" x1="482.582" y1="314.054" x2="445.929" y2="484.072" gradientUnits="userSpaceOnUse">
<stop offset="0.401042" stop-color="#989BC7"/>
<stop offset="1" stop-color="#D9D9D9" stop-opacity="0"/>
</linearGradient>
<linearGradient id="paint33_linear_2689_198684" x1="689.992" y1="300.325" x2="439.845" y2="467.862" gradientUnits="userSpaceOnUse">
<stop offset="0.401042" stop-color="#989BC7"/>
<stop offset="1" stop-color="#D9D9D9" stop-opacity="0"/>
</linearGradient>
<linearGradient id="paint34_linear_2689_198684" x1="1048.81" y1="284.845" x2="589.361" y2="105.938" gradientUnits="userSpaceOnUse">
<stop stop-color="#D9D9D9" stop-opacity="0"/>
<stop offset="0.221025" stop-color="#D9D9D9" stop-opacity="0.23"/>
<stop offset="0.95278" stop-color="#C2C3D3" stop-opacity="0"/>
<stop offset="1" stop-color="#989BC7"/>
</linearGradient>
<clipPath id="clip0_2689_198684">
<rect width="770.064" height="390" fill="white" transform="translate(0 0.0820312)"/>
</clipPath>
</defs>
</svg>
