<svg width="771" height="391" viewBox="0 0 771 391" fill="none" xmlns="http://www.w3.org/2000/svg">
<g clip-path="url(#clip0_2689_198683)">
<rect width="770.064" height="390" transform="translate(0 0.257812)" fill="#020405"/>
<rect width="770.064" height="390" transform="translate(0 0.257812)" fill="#060F14" fill-opacity="0.05"/>
<g opacity="0.3" filter="url(#filter0_f_2689_198683)">
<path d="M310.67 588.077C292.721 717.709 258.314 598.392 96.7726 636.284C-712.661 826.151 -204.478 -231.977 -54.2934 235.079C12.8649 443.933 328.619 458.445 310.67 588.077Z" fill="#6F13A4"/>
</g>
<g opacity="0.3" filter="url(#filter1_f_2689_198683)">
<path d="M877.183 -245.828C979.407 -204.075 874.678 -200.872 871.91 -60.897C858.039 640.473 99.1815 3.999 512.37 -21.2108C697.136 -32.4839 774.959 -287.58 877.183 -245.828Z" fill="#0C1A22"/>
</g>
<g filter="url(#filter2_f_2689_198683)">
<path d="M826.59 -494.494C898.67 -494.494 961.741 -485.484 1015.8 -467.463C1069.86 -448.242 1115.51 -422.413 1152.75 -389.977C1188.8 -357.54 1216.43 -319.097 1235.65 -274.648C1253.67 -230.198 1262.68 -182.144 1262.68 -130.486C1262.68 -43.9895 1239.25 24.4871 1192.4 74.9436C1145.55 125.4 1084.28 160.84 1008.59 181.262L1008.59 195.679C1074.67 218.504 1127.53 255.145 1167.17 305.602C1205.61 357.26 1224.84 419.129 1224.84 491.21C1224.84 587.317 1190 663.602 1120.32 720.066C1050.64 777.73 952.731 806.562 826.59 806.562C700.448 806.562 602.539 777.73 532.861 720.066C463.183 663.602 428.344 587.317 428.344 491.209C428.344 419.129 448.166 357.26 487.81 305.602C526.253 255.145 578.512 218.504 644.586 195.679L644.586 181.262C568.901 160.84 507.633 125.4 460.78 74.9435C413.928 24.487 390.502 -43.9896 390.502 -130.486C390.502 -182.144 400.112 -230.198 419.334 -274.648C437.354 -319.097 464.985 -357.54 502.227 -389.977C538.267 -422.413 583.317 -448.242 637.378 -467.464C691.438 -485.484 754.509 -494.494 826.59 -494.494ZM826.59 -362.947C738.892 -362.947 671.016 -343.725 622.962 -305.282C574.908 -265.638 550.881 -209.775 550.881 -137.694L550.881 -99.8522C550.881 -27.7715 574.908 27.4905 622.962 65.9335C671.016 105.578 738.891 125.4 826.59 125.4C914.288 125.4 982.164 105.578 1030.22 65.9335C1078.27 27.4905 1102.3 -27.7714 1102.3 -99.8521L1102.3 -137.694C1102.3 -209.775 1078.27 -265.638 1030.22 -305.282C982.164 -343.725 914.288 -362.947 826.59 -362.947ZM826.59 251.541C747.301 251.541 687.234 268.36 646.388 301.998C605.542 335.635 585.119 384.89 585.119 449.763L585.119 476.793C585.119 541.666 605.542 590.921 646.388 624.559C687.234 658.196 747.301 675.015 826.59 675.015C905.878 675.015 965.946 658.196 1006.79 624.559C1047.64 590.921 1068.06 541.666 1068.06 476.793L1068.06 449.763C1068.06 384.89 1047.64 335.635 1006.79 301.998C965.946 268.36 905.878 251.541 826.59 251.541Z" fill="url(#paint0_linear_2689_198683)" fill-opacity="0.26"/>
</g>
<g filter="url(#filter3_f_2689_198683)">
<path d="M549.586 73.4916C549.586 72.0189 548.393 70.825 546.92 70.825C545.447 70.825 544.253 72.0189 544.253 73.4916C544.253 74.9644 545.447 76.1583 546.92 76.1583C548.393 76.1583 549.586 74.9644 549.586 73.4916ZM754.131 150.127C670.427 141.868 599.994 115.923 547.235 73.1034L546.605 73.8799C599.552 116.851 670.185 142.849 754.033 151.123L754.131 150.127Z" fill="url(#paint1_linear_2689_198683)"/>
</g>
<g filter="url(#filter4_f_2689_198683)">
<path d="M443.164 -104.425C442.394 -103.17 442.788 -101.528 444.043 -100.758C445.299 -99.9881 446.941 -100.382 447.711 -101.637C448.481 -102.892 448.087 -104.534 446.832 -105.304C445.576 -106.074 443.934 -105.681 443.164 -104.425ZM466.606 34.5912C451.787 11.9242 427.869 -31.934 445.922 -102.908L444.953 -103.155C426.806 -31.8109 450.863 12.3378 465.769 35.1383L466.606 34.5912Z" fill="url(#paint2_linear_2689_198683)"/>
</g>
<g filter="url(#filter5_f_2689_198683)">
<path d="M460.71 -34.635C460.165 -33.2668 460.833 -31.7159 462.201 -31.171C463.569 -30.6261 465.12 -31.2936 465.665 -32.6618C466.21 -34.0301 465.542 -35.581 464.174 -36.1259C462.806 -36.6708 461.255 -36.0033 460.71 -34.635ZM511.67 84.7556C492.914 66.4765 461.174 30.6148 463.687 -33.6289L462.688 -33.668C460.158 30.9851 492.126 67.1049 510.972 85.4718L511.67 84.7556Z" fill="url(#paint3_linear_2689_198683)"/>
</g>
<g filter="url(#filter6_f_2689_198683)">
<path d="M553.139 -28.4026C553.106 -26.9302 554.273 -25.7102 555.746 -25.6777C557.218 -25.6453 558.438 -26.8125 558.471 -28.2849C558.503 -29.7573 557.336 -30.9773 555.863 -31.0098C554.391 -31.0422 553.171 -29.875 553.139 -28.4026ZM666.954 92.2688C651.223 85.7762 632.792 77.3407 613.677 59.6599C594.559 41.9771 574.732 15.0223 556.265 -28.5389L555.344 -28.1486C573.854 15.5142 593.756 42.5959 612.998 60.394C632.242 78.1943 650.802 86.6841 666.572 93.1932L666.954 92.2688Z" fill="url(#paint4_linear_2689_198683)"/>
</g>
<g filter="url(#filter7_f_2689_198683)">
<path d="M552.504 15.8494C552.722 17.3058 554.08 18.309 555.537 18.0902C556.993 17.8714 557.997 16.5133 557.778 15.0569C557.559 13.6005 556.201 12.5972 554.744 12.8161C553.288 13.0349 552.285 14.3929 552.504 15.8494ZM656.683 93.2941C631.271 86.9571 585.784 71.9757 555.582 15.2182L554.699 15.688C585.094 72.8071 630.907 87.897 656.441 94.2644L656.683 93.2941Z" fill="url(#paint5_linear_2689_198683)"/>
</g>
<g filter="url(#filter8_f_2689_198683)">
<path d="M400.835 -50.3987L400.342 -50.3127L400.835 -50.3987ZM415.077 -237.06C415.077 -238.532 413.883 -239.726 412.41 -239.726C410.938 -239.726 409.744 -238.532 409.744 -237.06C409.744 -235.587 410.938 -234.393 412.41 -234.393C413.883 -234.393 415.077 -235.587 415.077 -237.06ZM500.689 108.928C471.394 85.81 417.291 40.9795 401.327 -50.4846L400.342 -50.3127C416.371 41.5226 470.717 86.5498 500.069 109.713L500.689 108.928ZM401.327 -50.4846C388.53 -123.803 402.229 -205.824 412.883 -236.897L411.937 -237.222C401.236 -206.009 387.513 -123.817 400.342 -50.3127L401.327 -50.4846Z" fill="url(#paint6_linear_2689_198683)"/>
</g>
<g filter="url(#filter9_f_2689_198683)">
<path d="M558.534 317.51C557.143 317.024 555.622 317.758 555.137 319.148C554.651 320.538 555.385 322.059 556.775 322.545C558.165 323.031 559.686 322.297 560.172 320.907C560.657 319.516 559.924 317.996 558.534 317.51ZM453.929 435.681C472.409 382.779 510.852 342.547 557.867 320.48L557.442 319.575C510.194 341.751 471.557 382.185 452.985 435.351L453.929 435.681Z" fill="url(#paint7_linear_2689_198683)"/>
</g>
<g filter="url(#filter10_f_2689_198683)">
<path d="M525.498 280.53C524.054 280.241 522.649 281.177 522.36 282.621C522.071 284.065 523.007 285.47 524.451 285.759C525.895 286.048 527.3 285.112 527.589 283.668C527.878 282.224 526.942 280.819 525.498 280.53ZM483.362 319.991C495.606 305.923 509.728 293.674 525.248 283.563L524.702 282.726C509.105 292.887 494.913 305.196 482.607 319.335L483.362 319.991Z" fill="url(#paint8_linear_2689_198683)"/>
</g>
<g filter="url(#filter11_f_2689_198683)">
<path d="M481.591 318.166C480.134 318.38 479.126 319.735 479.34 321.192C479.554 322.649 480.908 323.657 482.366 323.443C483.823 323.229 484.831 321.875 484.617 320.418C484.403 318.96 483.049 317.952 481.591 318.166ZM411.14 521.383C400.464 448.624 428.489 377.29 482.339 321.151L481.618 320.459C427.597 376.775 399.422 448.406 410.15 521.528L411.14 521.383Z" fill="url(#paint9_linear_2689_198683)"/>
</g>
<g filter="url(#filter12_f_2689_198683)">
<path d="M661.625 256.044C660.383 256.836 660.019 258.485 660.811 259.727C661.604 260.968 663.252 261.332 664.494 260.54C665.735 259.747 666.099 258.099 665.307 256.857C664.515 255.616 662.866 255.252 661.625 256.044ZM453.772 555.494C410.855 473.132 432.817 367.659 529.629 305.871L529.091 305.028C431.854 367.087 409.722 473.122 452.885 555.956L453.772 555.494ZM529.629 305.871C570.398 279.852 624.662 261.421 663.093 258.791L663.025 257.793C624.403 260.436 569.98 278.932 529.091 305.028L529.629 305.871Z" fill="url(#paint10_linear_2689_198683)"/>
</g>
<g filter="url(#filter13_f_2689_198683)">
<path d="M496.094 30.4817C496.094 29.0089 494.9 27.815 493.428 27.815C491.955 27.815 490.761 29.0089 490.761 30.4817C490.761 31.9544 491.955 33.1483 493.428 33.1483C494.9 33.1483 496.094 31.9544 496.094 30.4817ZM759.32 156.897C569.589 136.715 513.169 70.4532 493.878 30.2653L492.977 30.698C512.463 71.2943 569.26 137.685 759.215 157.892L759.32 156.897Z" fill="url(#paint11_linear_2689_198683)"/>
</g>
<g filter="url(#filter14_f_2689_198683)">
<path d="M392.927 49.9262C393.313 51.3474 394.779 52.1862 396.2 51.7998C397.621 51.4134 398.46 49.948 398.073 48.5269C397.687 47.1057 396.221 46.2669 394.8 46.6533C393.379 47.0398 392.54 48.5051 392.927 49.9262ZM623.597 185.869C596.158 183.008 563.6 178.365 525.725 159.652C487.847 140.938 444.62 108.135 395.886 48.9089L395.114 49.5443C443.918 108.856 487.252 141.759 525.282 160.549C563.315 179.34 596.012 183.998 623.494 186.863L623.597 185.869Z" fill="url(#paint12_linear_2689_198683)"/>
</g>
<g filter="url(#filter15_f_2689_198683)">
<path d="M499.617 181.28C500.24 182.615 501.826 183.192 503.161 182.569C504.496 181.946 505.073 180.359 504.45 179.025C503.827 177.69 502.24 177.113 500.905 177.736C499.571 178.359 498.994 179.946 499.617 181.28ZM611.492 196.965C585.333 198.095 545.809 197.622 502.223 179.69L501.843 180.615C545.623 198.627 585.316 199.097 611.535 197.965L611.492 196.965Z" fill="url(#paint13_linear_2689_198683)"/>
</g>
<path d="M549.586 73.4918C549.586 72.0191 548.392 70.8252 546.92 70.8252C545.447 70.8252 544.253 72.0191 544.253 73.4918C544.253 74.9646 545.447 76.1585 546.92 76.1585C548.392 76.1585 549.586 74.9646 549.586 73.4918ZM753.529 148.513C669.301 142.617 599.997 115.925 547.235 73.1036L546.604 73.88C599.549 116.849 669.057 143.603 753.459 149.511L753.529 148.513Z" fill="url(#paint14_linear_2689_198683)"/>
<path d="M443.164 -104.425C442.394 -103.17 442.788 -101.528 444.043 -100.758C445.299 -99.9881 446.941 -100.382 447.711 -101.637C448.481 -102.892 448.087 -104.534 446.832 -105.304C445.576 -106.074 443.934 -105.681 443.164 -104.425ZM466.606 34.5912C451.787 11.9242 427.869 -31.934 445.922 -102.908L444.953 -103.155C426.806 -31.8109 450.863 12.3378 465.769 35.1383L466.606 34.5912Z" fill="url(#paint15_linear_2689_198683)"/>
<path d="M460.71 -34.635C460.165 -33.2668 460.833 -31.7159 462.201 -31.171C463.569 -30.6261 465.12 -31.2936 465.665 -32.6618C466.21 -34.0301 465.542 -35.581 464.174 -36.1259C462.806 -36.6708 461.255 -36.0033 460.71 -34.635ZM511.67 84.7556C492.914 66.4765 461.174 30.6148 463.687 -33.6289L462.688 -33.668C460.158 30.9851 492.126 67.1049 510.972 85.4718L511.67 84.7556Z" fill="url(#paint16_linear_2689_198683)"/>
<g filter="url(#filter16_f_2689_198683)">
<path d="M583.725 365.476C582.331 365.001 580.815 365.745 580.34 367.139C579.864 368.533 580.608 370.048 582.002 370.524C583.396 370.999 584.911 370.255 585.387 368.861C585.863 367.467 585.118 365.952 583.725 365.476ZM523.995 395.873C532.804 385.878 550.193 368.86 582.869 368.5L582.858 367.5C549.772 367.864 532.136 385.123 523.245 395.211L523.995 395.873Z" fill="url(#paint17_linear_2689_198683)"/>
</g>
<path d="M583.76 365.645C582.369 365.162 580.849 365.898 580.366 367.289C579.882 368.68 580.619 370.2 582.01 370.683C583.401 371.166 584.921 370.43 585.404 369.039C585.887 367.648 585.151 366.128 583.76 365.645ZM523.866 395.716C532.728 385.77 550.21 368.846 582.888 368.664L582.882 367.664C549.795 367.848 532.065 385.011 523.119 395.051L523.866 395.716Z" fill="url(#paint18_linear_2689_198683)"/>
<path d="M394.053 49.9836C394.435 51.4061 395.897 52.2501 397.32 51.8686C398.742 51.4872 399.586 50.0248 399.205 48.6023C398.823 47.1798 397.361 46.3359 395.938 46.7173C394.516 47.0987 393.672 48.5611 394.053 49.9836ZM624.246 186.734C596.817 183.777 564.276 179.02 526.466 160.175C488.654 141.328 445.542 108.373 397.016 48.9766L396.242 49.6093C444.837 109.092 488.056 142.147 526.02 161.07C563.987 179.994 596.667 184.766 624.138 187.728L624.246 186.734Z" fill="url(#paint19_linear_2689_198683)"/>
<path d="M499.584 181.42C500.202 182.757 501.787 183.339 503.123 182.721C504.46 182.103 505.042 180.518 504.424 179.181C503.806 177.845 502.221 177.262 500.885 177.88C499.548 178.499 498.965 180.083 499.584 181.42ZM612.1 197.789C585.799 198.832 545.994 198.208 502.197 179.84L501.811 180.762C545.803 199.213 585.777 199.834 612.14 198.788L612.1 197.789Z" fill="url(#paint20_linear_2689_198683)"/>
<g filter="url(#filter17_f_2689_198683)">
<path d="M659.207 322.779C658.106 321.801 656.42 321.902 655.443 323.004C654.465 324.105 654.566 325.791 655.668 326.768C656.769 327.746 658.455 327.645 659.432 326.543C660.41 325.442 660.309 323.756 659.207 322.779ZM549.547 352.822C573.231 341.336 609.957 325.974 657.445 325.273L657.43 324.273C609.73 324.977 572.85 340.41 549.111 351.922L549.547 352.822Z" fill="url(#paint21_linear_2689_198683)"/>
</g>
<path d="M553.139 -28.4026C553.106 -26.9302 554.273 -25.7102 555.746 -25.6777C557.218 -25.6453 558.438 -26.8125 558.471 -28.2849C558.503 -29.7573 557.336 -30.9773 555.863 -31.0098C554.391 -31.0422 553.171 -29.875 553.139 -28.4026ZM666.954 92.2688C651.223 85.7762 632.792 77.3407 613.677 59.6599C594.559 41.9771 574.732 15.0223 556.265 -28.5389L555.344 -28.1486C573.854 15.5142 593.756 42.5959 612.998 60.394C632.242 78.1943 650.802 86.6841 666.572 93.1932L666.954 92.2688Z" fill="url(#paint22_linear_2689_198683)"/>
<path d="M552.504 15.8494C552.722 17.3058 554.08 18.309 555.537 18.0902C556.993 17.8714 557.997 16.5133 557.778 15.0569C557.559 13.6005 556.201 12.5972 554.744 12.8161C553.288 13.0349 552.285 14.3929 552.504 15.8494ZM656.683 93.2941C631.271 86.9571 585.784 71.9757 555.582 15.2182L554.699 15.688C585.094 72.8071 630.907 87.897 656.441 94.2644L656.683 93.2941Z" fill="url(#paint23_linear_2689_198683)"/>
<g filter="url(#filter18_f_2689_198683)">
<path d="M541.024 187.404C542.143 188.362 543.826 188.232 544.785 187.114C545.743 185.996 545.613 184.313 544.495 183.354C543.377 182.396 541.693 182.525 540.735 183.644C539.777 184.762 539.906 186.445 541.024 187.404ZM613.794 195.322C593.678 197.338 569.907 195.332 542.94 184.913L542.58 185.845C569.698 196.323 593.627 198.348 613.894 196.317L613.794 195.322Z" fill="url(#paint24_linear_2689_198683)"/>
</g>
<path d="M541.024 187.404C542.143 188.362 543.826 188.232 544.785 187.114C545.743 185.996 545.613 184.313 544.495 183.354C543.377 182.396 541.693 182.525 540.735 183.644C539.777 184.762 539.906 186.445 541.024 187.404ZM613.794 195.322C593.678 197.338 569.907 195.332 542.94 184.913L542.58 185.845C569.698 196.323 593.627 198.348 613.894 196.317L613.794 195.322Z" fill="url(#paint25_linear_2689_198683)"/>
<g filter="url(#filter19_f_2689_198683)">
<path d="M618.836 333.883C617.428 333.453 615.937 334.246 615.506 335.654C615.076 337.062 615.869 338.553 617.277 338.984C618.685 339.414 620.176 338.622 620.607 337.213C621.037 335.805 620.245 334.314 618.836 333.883ZM548.982 355.759C566.608 345.858 589.195 338.181 618.078 336.933L618.035 335.934C588.99 337.189 566.251 344.912 548.492 354.887L548.982 355.759Z" fill="url(#paint26_linear_2689_198683)"/>
</g>
<path d="M659.207 322.779C658.106 321.801 656.42 321.902 655.443 323.004C654.465 324.105 654.566 325.791 655.668 326.768C656.769 327.746 658.455 327.645 659.432 326.543C660.41 325.442 660.309 323.756 659.207 322.779ZM549.547 352.822C573.231 341.336 609.957 325.974 657.445 325.273L657.43 324.273C609.73 324.977 572.85 340.41 549.111 351.922L549.547 352.822Z" fill="url(#paint27_linear_2689_198683)"/>
<path d="M618.836 333.883C617.428 333.453 615.937 334.246 615.506 335.654C615.076 337.062 615.869 338.553 617.277 338.984C618.685 339.414 620.176 338.622 620.607 337.213C621.037 335.805 620.245 334.314 618.836 333.883ZM548.982 355.759C566.608 345.858 589.195 338.181 618.078 336.933L618.035 335.934C588.99 337.189 566.251 344.912 548.492 354.887L548.982 355.759Z" fill="url(#paint28_linear_2689_198683)"/>
<path d="M400.835 -50.3987L400.342 -50.3127L400.835 -50.3987ZM415.077 -237.06C415.077 -238.532 413.883 -239.726 412.41 -239.726C410.938 -239.726 409.744 -238.532 409.744 -237.06C409.744 -235.587 410.938 -234.393 412.41 -234.393C413.883 -234.393 415.077 -235.587 415.077 -237.06ZM500.689 108.928C471.394 85.81 417.291 40.9795 401.327 -50.4846L400.342 -50.3127C416.371 41.5226 470.717 86.5498 500.069 109.713L500.689 108.928ZM401.327 -50.4846C388.53 -123.803 402.229 -205.824 412.883 -236.897L411.937 -237.222C401.236 -206.009 387.513 -123.817 400.342 -50.3127L401.327 -50.4846Z" fill="url(#paint29_linear_2689_198683)"/>
<path d="M558.842 317.78C557.454 317.287 555.929 318.013 555.436 319.401C554.943 320.789 555.669 322.313 557.057 322.806C558.445 323.299 559.969 322.573 560.462 321.185C560.955 319.797 560.229 318.273 558.842 317.78ZM453.633 435.414C472.384 382.607 511.033 342.573 558.159 320.747L557.739 319.839C510.379 341.774 471.535 382.009 452.691 435.079L453.633 435.414Z" fill="url(#paint30_linear_2689_198683)"/>
<path d="M525.129 281.572C523.686 281.275 522.276 282.204 521.98 283.646C521.683 285.089 522.612 286.499 524.055 286.796C525.497 287.092 526.907 286.163 527.204 284.721C527.5 283.278 526.571 281.868 525.129 281.572ZM482.784 320.809C495.103 306.806 509.289 294.632 524.862 284.604L524.321 283.763C508.67 293.841 494.414 306.075 482.033 320.149L482.784 320.809Z" fill="url(#paint31_linear_2689_198683)"/>
<path d="M481.023 318.973C479.565 319.179 478.55 320.528 478.756 321.986C478.962 323.445 480.311 324.46 481.77 324.254C483.228 324.048 484.243 322.698 484.037 321.24C483.831 319.782 482.482 318.767 481.023 318.973ZM409.494 521.812C399.205 448.998 427.608 377.814 481.755 321.961L481.037 321.265C426.719 377.294 398.163 448.775 408.503 521.952L409.494 521.812Z" fill="url(#paint32_linear_2689_198683)"/>
<path d="M661.383 255.848C660.143 256.643 659.782 258.292 660.576 259.532C661.371 260.772 663.02 261.133 664.26 260.339C665.5 259.544 665.862 257.895 665.067 256.655C664.273 255.415 662.623 255.054 661.383 255.848ZM454.056 555.662C410.995 473.376 432.772 367.864 529.475 305.907L528.936 305.065C431.808 367.295 409.862 473.368 453.17 556.126L454.056 555.662ZM529.475 305.907C570.198 279.816 624.43 261.29 662.857 258.592L662.787 257.595C624.169 260.306 569.779 278.897 528.936 305.065L529.475 305.907Z" fill="url(#paint33_linear_2689_198683)"/>
<path d="M496.094 30.4788C496.094 29.006 494.9 27.8121 493.428 27.8121C491.955 27.8121 490.761 29.006 490.761 30.4788C490.761 31.9516 491.955 33.1455 493.428 33.1455C494.9 33.1455 496.094 31.9516 496.094 30.4788ZM636.082 135.003C546.003 104.196 507.673 59.001 493.878 30.2624L492.977 30.6952C506.907 59.7171 545.473 105.072 635.758 135.95L636.082 135.003Z" fill="url(#paint34_linear_2689_198683)"/>
<g style="mix-blend-mode:color-dodge" filter="url(#filter20_f_2689_198683)">
<ellipse cx="542.76" cy="368.004" rx="177.119" ry="137.254" transform="rotate(-180 542.76 368.004)" fill="#0DAA84"/>
</g>
<g style="mix-blend-mode:color-dodge" filter="url(#filter21_f_2689_198683)">
<ellipse cx="814.101" cy="150.488" rx="177.119" ry="137.254" transform="rotate(-180 814.101 150.488)" fill="#0D8E96"/>
</g>
<circle cx="543.936" cy="218.992" r="2.98438" fill="#9DCCE2"/>
<circle cx="656.562" cy="224.801" r="2.98438" fill="#9DCCE2"/>
<circle cx="465.08" cy="160.02" r="2.98438" fill="#9DCCE2"/>
<circle cx="653.578" cy="161.742" r="2.98438" fill="#9DCCE2"/>
<circle cx="522.381" cy="122.992" r="2.98438" fill="#9DCCE2"/>
<circle cx="524.404" cy="114.002" r="1.2832" fill="#9DCCE2"/>
<circle cx="548.203" cy="106.955" r="1.2832" fill="#9DCCE2"/>
<circle cx="635.697" cy="154.752" r="1.2832" fill="#9DCCE2"/>
<circle cx="521.838" cy="239.26" r="1.2832" fill="#9DCCE2"/>
<circle cx="556.93" cy="214.725" r="1.2832" fill="#9DCCE2"/>
<g filter="url(#filter22_f_2689_198683)">
<circle cx="543.936" cy="218.992" r="2.98438" fill="#E5BBFF" fill-opacity="0.54"/>
</g>
<g filter="url(#filter23_f_2689_198683)">
<circle cx="656.562" cy="224.801" r="2.98438" fill="#E5BBFF" fill-opacity="0.54"/>
</g>
<g filter="url(#filter24_f_2689_198683)">
<circle cx="643.363" cy="358.402" r="2.98438" fill="#E5BBFF" fill-opacity="0.54"/>
</g>
<g filter="url(#filter25_f_2689_198683)">
<circle cx="621.918" cy="302.011" r="2.98438" transform="rotate(-117.824 621.918 302.011)" fill="#E5BBFF" fill-opacity="0.54"/>
</g>
<g filter="url(#filter26_f_2689_198683)">
<circle cx="650.594" cy="344.891" r="1.24609" fill="#E5BBFF" fill-opacity="0.54"/>
</g>
<g filter="url(#filter27_f_2689_198683)">
<circle cx="599.85" cy="291.82" r="1.24609" transform="rotate(-117.824 599.85 291.82)" fill="#E5BBFF" fill-opacity="0.54"/>
</g>
<circle cx="643.363" cy="358.402" r="2.98438" fill="#9ED0E5"/>
<circle cx="621.918" cy="302.011" r="2.98438" transform="rotate(-117.824 621.918 302.011)" fill="#9ED0E5"/>
<circle cx="650.594" cy="344.891" r="1.24609" fill="#9ED0E5"/>
<circle cx="599.85" cy="291.82" r="1.24609" transform="rotate(-117.824 599.85 291.82)" fill="#9ED0E5"/>
<g filter="url(#filter28_f_2689_198683)">
<circle cx="465.08" cy="159.258" r="2.98438" fill="#E5BBFF" fill-opacity="0.54"/>
</g>
<g filter="url(#filter29_f_2689_198683)">
<circle cx="653.578" cy="161.742" r="2.98438" fill="#E5BBFF" fill-opacity="0.54"/>
</g>
<g filter="url(#filter30_f_2689_198683)">
<circle cx="522.381" cy="122.992" r="2.98438" fill="#E5BBFF" fill-opacity="0.54"/>
</g>
<g filter="url(#filter31_f_2689_198683)">
<circle cx="524.404" cy="114.002" r="1.2832" fill="#E5BBFF" fill-opacity="0.54"/>
</g>
<g filter="url(#filter32_f_2689_198683)">
<circle cx="548.203" cy="106.955" r="1.2832" fill="#E5BBFF" fill-opacity="0.54"/>
</g>
<g filter="url(#filter33_f_2689_198683)">
<circle cx="635.697" cy="154.752" r="1.2832" fill="#E5BBFF" fill-opacity="0.54"/>
</g>
<g filter="url(#filter34_f_2689_198683)">
<circle cx="521.838" cy="239.26" r="1.2832" fill="#E5BBFF" fill-opacity="0.54"/>
</g>
<g filter="url(#filter35_f_2689_198683)">
<circle cx="422.266" cy="372.182" r="1.2832" fill="#E5BBFF" fill-opacity="0.54"/>
</g>
<circle cx="422.266" cy="372.182" r="1.2832" fill="white" fill-opacity="0.54"/>
<g filter="url(#filter36_f_2689_198683)">
<circle cx="556.93" cy="214.725" r="1.2832" fill="#E5BBFF" fill-opacity="0.54"/>
</g>
</g>
<defs>
<filter id="filter0_f_2689_198683" x="-636.203" y="-171.326" width="1233.83" height="1116.91" filterUnits="userSpaceOnUse" color-interpolation-filters="sRGB">
<feFlood flood-opacity="0" result="BackgroundImageFix"/>
<feBlend mode="normal" in="SourceGraphic" in2="BackgroundImageFix" result="shape"/>
<feGaussianBlur stdDeviation="143.112" result="effect1_foregroundBlur_2689_198683"/>
</filter>
<filter id="filter1_f_2689_198683" x="247.12" y="-392.661" width="816.979" height="802.35" filterUnits="userSpaceOnUse" color-interpolation-filters="sRGB">
<feFlood flood-opacity="0" result="BackgroundImageFix"/>
<feBlend mode="normal" in="SourceGraphic" in2="BackgroundImageFix" result="shape"/>
<feGaussianBlur stdDeviation="71.11" result="effect1_foregroundBlur_2689_198683"/>
</filter>
<filter id="filter2_f_2689_198683" x="304.039" y="-580.955" width="1045.1" height="1473.98" filterUnits="userSpaceOnUse" color-interpolation-filters="sRGB">
<feFlood flood-opacity="0" result="BackgroundImageFix"/>
<feBlend mode="normal" in="SourceGraphic" in2="BackgroundImageFix" result="shape"/>
<feGaussianBlur stdDeviation="43.2316" result="effect1_foregroundBlur_2689_198683"/>
</filter>
<filter id="filter3_f_2689_198683" x="539.703" y="66.2735" width="218.978" height="89.3983" filterUnits="userSpaceOnUse" color-interpolation-filters="sRGB">
<feFlood flood-opacity="0" result="BackgroundImageFix"/>
<feBlend mode="normal" in="SourceGraphic" in2="BackgroundImageFix" result="shape"/>
<feGaussianBlur stdDeviation="2.27535" result="effect1_foregroundBlur_2689_198683"/>
</filter>
<filter id="filter4_f_2689_198683" x="433.9" y="-110.25" width="37.2557" height="149.937" filterUnits="userSpaceOnUse" color-interpolation-filters="sRGB">
<feFlood flood-opacity="0" result="BackgroundImageFix"/>
<feBlend mode="normal" in="SourceGraphic" in2="BackgroundImageFix" result="shape"/>
<feGaussianBlur stdDeviation="2.27535" result="effect1_foregroundBlur_2689_198683"/>
</filter>
<filter id="filter5_f_2689_198683" x="455.969" y="-40.8671" width="60.2518" height="130.89" filterUnits="userSpaceOnUse" color-interpolation-filters="sRGB">
<feFlood flood-opacity="0" result="BackgroundImageFix"/>
<feBlend mode="normal" in="SourceGraphic" in2="BackgroundImageFix" result="shape"/>
<feGaussianBlur stdDeviation="2.27535" result="effect1_foregroundBlur_2689_198683"/>
</filter>
<filter id="filter6_f_2689_198683" x="548.588" y="-35.5624" width="122.916" height="133.305" filterUnits="userSpaceOnUse" color-interpolation-filters="sRGB">
<feFlood flood-opacity="0" result="BackgroundImageFix"/>
<feBlend mode="normal" in="SourceGraphic" in2="BackgroundImageFix" result="shape"/>
<feGaussianBlur stdDeviation="2.27535" result="effect1_foregroundBlur_2689_198683"/>
</filter>
<filter id="filter7_f_2689_198683" x="547.922" y="8.23446" width="113.312" height="90.5819" filterUnits="userSpaceOnUse" color-interpolation-filters="sRGB">
<feFlood flood-opacity="0" result="BackgroundImageFix"/>
<feBlend mode="normal" in="SourceGraphic" in2="BackgroundImageFix" result="shape"/>
<feGaussianBlur stdDeviation="2.27535" result="effect1_foregroundBlur_2689_198683"/>
</filter>
<filter id="filter8_f_2689_198683" x="390.608" y="-244.277" width="114.633" height="358.539" filterUnits="userSpaceOnUse" color-interpolation-filters="sRGB">
<feFlood flood-opacity="0" result="BackgroundImageFix"/>
<feBlend mode="normal" in="SourceGraphic" in2="BackgroundImageFix" result="shape"/>
<feGaussianBlur stdDeviation="2.27535" result="effect1_foregroundBlur_2689_198683"/>
</filter>
<filter id="filter9_f_2689_198683" x="448.434" y="312.809" width="116.439" height="127.422" filterUnits="userSpaceOnUse" color-interpolation-filters="sRGB">
<feFlood flood-opacity="0" result="BackgroundImageFix"/>
<feBlend mode="normal" in="SourceGraphic" in2="BackgroundImageFix" result="shape"/>
<feGaussianBlur stdDeviation="2.27535" result="effect1_foregroundBlur_2689_198683"/>
</filter>
<filter id="filter10_f_2689_198683" x="478.057" y="275.926" width="54.1365" height="48.617" filterUnits="userSpaceOnUse" color-interpolation-filters="sRGB">
<feFlood flood-opacity="0" result="BackgroundImageFix"/>
<feBlend mode="normal" in="SourceGraphic" in2="BackgroundImageFix" result="shape"/>
<feGaussianBlur stdDeviation="2.27535" result="effect1_foregroundBlur_2689_198683"/>
</filter>
<filter id="filter11_f_2689_198683" x="403.346" y="313.586" width="85.8514" height="212.492" filterUnits="userSpaceOnUse" color-interpolation-filters="sRGB">
<feFlood flood-opacity="0" result="BackgroundImageFix"/>
<feBlend mode="normal" in="SourceGraphic" in2="BackgroundImageFix" result="shape"/>
<feGaussianBlur stdDeviation="2.27535" result="effect1_foregroundBlur_2689_198683"/>
</filter>
<filter id="filter12_f_2689_198683" x="427.277" y="251.074" width="243" height="309.433" filterUnits="userSpaceOnUse" color-interpolation-filters="sRGB">
<feFlood flood-opacity="0" result="BackgroundImageFix"/>
<feBlend mode="normal" in="SourceGraphic" in2="BackgroundImageFix" result="shape"/>
<feGaussianBlur stdDeviation="2.27535" result="effect1_foregroundBlur_2689_198683"/>
</filter>
<filter id="filter13_f_2689_198683" x="486.211" y="23.2657" width="277.66" height="139.176" filterUnits="userSpaceOnUse" color-interpolation-filters="sRGB">
<feFlood flood-opacity="0" result="BackgroundImageFix"/>
<feBlend mode="normal" in="SourceGraphic" in2="BackgroundImageFix" result="shape"/>
<feGaussianBlur stdDeviation="2.27535" result="effect1_foregroundBlur_2689_198683"/>
</filter>
<filter id="filter14_f_2689_198683" x="388.281" y="42.0079" width="239.867" height="149.406" filterUnits="userSpaceOnUse" color-interpolation-filters="sRGB">
<feFlood flood-opacity="0" result="BackgroundImageFix"/>
<feBlend mode="normal" in="SourceGraphic" in2="BackgroundImageFix" result="shape"/>
<feGaussianBlur stdDeviation="2.27535" result="effect1_foregroundBlur_2689_198683"/>
</filter>
<filter id="filter15_f_2689_198683" x="494.815" y="172.934" width="121.271" height="29.9451" filterUnits="userSpaceOnUse" color-interpolation-filters="sRGB">
<feFlood flood-opacity="0" result="BackgroundImageFix"/>
<feBlend mode="normal" in="SourceGraphic" in2="BackgroundImageFix" result="shape"/>
<feGaussianBlur stdDeviation="2.27535" result="effect1_foregroundBlur_2689_198683"/>
</filter>
<filter id="filter16_f_2689_198683" x="518.695" y="360.781" width="71.3865" height="39.6405" filterUnits="userSpaceOnUse" color-interpolation-filters="sRGB">
<feFlood flood-opacity="0" result="BackgroundImageFix"/>
<feBlend mode="normal" in="SourceGraphic" in2="BackgroundImageFix" result="shape"/>
<feGaussianBlur stdDeviation="2.27535" result="effect1_foregroundBlur_2689_198683"/>
</filter>
<filter id="filter17_f_2689_198683" x="545.111" y="318.105" width="118.992" height="38.7148" filterUnits="userSpaceOnUse" color-interpolation-filters="sRGB">
<feFlood flood-opacity="0" result="BackgroundImageFix"/>
<feBlend mode="normal" in="SourceGraphic" in2="BackgroundImageFix" result="shape"/>
<feGaussianBlur stdDeviation="2" result="effect1_foregroundBlur_2689_198683"/>
</filter>
<filter id="filter18_f_2689_198683" x="536.094" y="178.711" width="81.8008" height="22.3125" filterUnits="userSpaceOnUse" color-interpolation-filters="sRGB">
<feFlood flood-opacity="0" result="BackgroundImageFix"/>
<feBlend mode="normal" in="SourceGraphic" in2="BackgroundImageFix" result="shape"/>
<feGaussianBlur stdDeviation="2" result="effect1_foregroundBlur_2689_198683"/>
</filter>
<filter id="filter19_f_2689_198683" x="544.492" y="329.766" width="80.2324" height="29.9922" filterUnits="userSpaceOnUse" color-interpolation-filters="sRGB">
<feFlood flood-opacity="0" result="BackgroundImageFix"/>
<feBlend mode="normal" in="SourceGraphic" in2="BackgroundImageFix" result="shape"/>
<feGaussianBlur stdDeviation="2" result="effect1_foregroundBlur_2689_198683"/>
</filter>
<filter id="filter20_f_2689_198683" x="106.251" y="-28.6396" width="873.018" height="793.287" filterUnits="userSpaceOnUse" color-interpolation-filters="sRGB">
<feFlood flood-opacity="0" result="BackgroundImageFix"/>
<feBlend mode="normal" in="SourceGraphic" in2="BackgroundImageFix" result="shape"/>
<feGaussianBlur stdDeviation="129.695" result="effect1_foregroundBlur_2689_198683"/>
</filter>
<filter id="filter21_f_2689_198683" x="377.593" y="-246.155" width="873.018" height="793.287" filterUnits="userSpaceOnUse" color-interpolation-filters="sRGB">
<feFlood flood-opacity="0" result="BackgroundImageFix"/>
<feBlend mode="normal" in="SourceGraphic" in2="BackgroundImageFix" result="shape"/>
<feGaussianBlur stdDeviation="129.695" result="effect1_foregroundBlur_2689_198683"/>
</filter>
<filter id="filter22_f_2689_198683" x="533.951" y="209.008" width="19.9688" height="19.9688" filterUnits="userSpaceOnUse" color-interpolation-filters="sRGB">
<feFlood flood-opacity="0" result="BackgroundImageFix"/>
<feBlend mode="normal" in="SourceGraphic" in2="BackgroundImageFix" result="shape"/>
<feGaussianBlur stdDeviation="3.5" result="effect1_foregroundBlur_2689_198683"/>
</filter>
<filter id="filter23_f_2689_198683" x="646.578" y="214.816" width="19.9688" height="19.9688" filterUnits="userSpaceOnUse" color-interpolation-filters="sRGB">
<feFlood flood-opacity="0" result="BackgroundImageFix"/>
<feBlend mode="normal" in="SourceGraphic" in2="BackgroundImageFix" result="shape"/>
<feGaussianBlur stdDeviation="3.5" result="effect1_foregroundBlur_2689_198683"/>
</filter>
<filter id="filter24_f_2689_198683" x="633.379" y="348.418" width="19.9688" height="19.9688" filterUnits="userSpaceOnUse" color-interpolation-filters="sRGB">
<feFlood flood-opacity="0" result="BackgroundImageFix"/>
<feBlend mode="normal" in="SourceGraphic" in2="BackgroundImageFix" result="shape"/>
<feGaussianBlur stdDeviation="3.5" result="effect1_foregroundBlur_2689_198683"/>
</filter>
<filter id="filter25_f_2689_198683" x="611.934" y="292.027" width="19.9688" height="19.9688" filterUnits="userSpaceOnUse" color-interpolation-filters="sRGB">
<feFlood flood-opacity="0" result="BackgroundImageFix"/>
<feBlend mode="normal" in="SourceGraphic" in2="BackgroundImageFix" result="shape"/>
<feGaussianBlur stdDeviation="3.5" result="effect1_foregroundBlur_2689_198683"/>
</filter>
<filter id="filter26_f_2689_198683" x="642.348" y="336.645" width="16.4922" height="16.4922" filterUnits="userSpaceOnUse" color-interpolation-filters="sRGB">
<feFlood flood-opacity="0" result="BackgroundImageFix"/>
<feBlend mode="normal" in="SourceGraphic" in2="BackgroundImageFix" result="shape"/>
<feGaussianBlur stdDeviation="3.5" result="effect1_foregroundBlur_2689_198683"/>
</filter>
<filter id="filter27_f_2689_198683" x="591.604" y="283.574" width="16.4941" height="16.4922" filterUnits="userSpaceOnUse" color-interpolation-filters="sRGB">
<feFlood flood-opacity="0" result="BackgroundImageFix"/>
<feBlend mode="normal" in="SourceGraphic" in2="BackgroundImageFix" result="shape"/>
<feGaussianBlur stdDeviation="3.5" result="effect1_foregroundBlur_2689_198683"/>
</filter>
<filter id="filter28_f_2689_198683" x="455.096" y="149.273" width="19.9688" height="19.9688" filterUnits="userSpaceOnUse" color-interpolation-filters="sRGB">
<feFlood flood-opacity="0" result="BackgroundImageFix"/>
<feBlend mode="normal" in="SourceGraphic" in2="BackgroundImageFix" result="shape"/>
<feGaussianBlur stdDeviation="3.5" result="effect1_foregroundBlur_2689_198683"/>
</filter>
<filter id="filter29_f_2689_198683" x="643.594" y="151.758" width="19.9688" height="19.9688" filterUnits="userSpaceOnUse" color-interpolation-filters="sRGB">
<feFlood flood-opacity="0" result="BackgroundImageFix"/>
<feBlend mode="normal" in="SourceGraphic" in2="BackgroundImageFix" result="shape"/>
<feGaussianBlur stdDeviation="3.5" result="effect1_foregroundBlur_2689_198683"/>
</filter>
<filter id="filter30_f_2689_198683" x="512.396" y="113.008" width="19.9688" height="19.9688" filterUnits="userSpaceOnUse" color-interpolation-filters="sRGB">
<feFlood flood-opacity="0" result="BackgroundImageFix"/>
<feBlend mode="normal" in="SourceGraphic" in2="BackgroundImageFix" result="shape"/>
<feGaussianBlur stdDeviation="3.5" result="effect1_foregroundBlur_2689_198683"/>
</filter>
<filter id="filter31_f_2689_198683" x="516.121" y="105.719" width="16.5664" height="16.5664" filterUnits="userSpaceOnUse" color-interpolation-filters="sRGB">
<feFlood flood-opacity="0" result="BackgroundImageFix"/>
<feBlend mode="normal" in="SourceGraphic" in2="BackgroundImageFix" result="shape"/>
<feGaussianBlur stdDeviation="3.5" result="effect1_foregroundBlur_2689_198683"/>
</filter>
<filter id="filter32_f_2689_198683" x="539.92" y="98.6719" width="16.5664" height="16.5664" filterUnits="userSpaceOnUse" color-interpolation-filters="sRGB">
<feFlood flood-opacity="0" result="BackgroundImageFix"/>
<feBlend mode="normal" in="SourceGraphic" in2="BackgroundImageFix" result="shape"/>
<feGaussianBlur stdDeviation="3.5" result="effect1_foregroundBlur_2689_198683"/>
</filter>
<filter id="filter33_f_2689_198683" x="627.414" y="146.469" width="16.5664" height="16.5664" filterUnits="userSpaceOnUse" color-interpolation-filters="sRGB">
<feFlood flood-opacity="0" result="BackgroundImageFix"/>
<feBlend mode="normal" in="SourceGraphic" in2="BackgroundImageFix" result="shape"/>
<feGaussianBlur stdDeviation="3.5" result="effect1_foregroundBlur_2689_198683"/>
</filter>
<filter id="filter34_f_2689_198683" x="513.555" y="230.977" width="16.5664" height="16.5664" filterUnits="userSpaceOnUse" color-interpolation-filters="sRGB">
<feFlood flood-opacity="0" result="BackgroundImageFix"/>
<feBlend mode="normal" in="SourceGraphic" in2="BackgroundImageFix" result="shape"/>
<feGaussianBlur stdDeviation="3.5" result="effect1_foregroundBlur_2689_198683"/>
</filter>
<filter id="filter35_f_2689_198683" x="413.982" y="363.898" width="16.5664" height="16.5664" filterUnits="userSpaceOnUse" color-interpolation-filters="sRGB">
<feFlood flood-opacity="0" result="BackgroundImageFix"/>
<feBlend mode="normal" in="SourceGraphic" in2="BackgroundImageFix" result="shape"/>
<feGaussianBlur stdDeviation="3.5" result="effect1_foregroundBlur_2689_198683"/>
</filter>
<filter id="filter36_f_2689_198683" x="548.646" y="206.441" width="16.5664" height="16.5664" filterUnits="userSpaceOnUse" color-interpolation-filters="sRGB">
<feFlood flood-opacity="0" result="BackgroundImageFix"/>
<feBlend mode="normal" in="SourceGraphic" in2="BackgroundImageFix" result="shape"/>
<feGaussianBlur stdDeviation="3.5" result="effect1_foregroundBlur_2689_198683"/>
</filter>
<linearGradient id="paint0_linear_2689_198683" x1="740.512" y1="643.882" x2="740.269" y2="-234.847" gradientUnits="userSpaceOnUse">
<stop stop-color="#B746FD"/>
<stop offset="0.494792" stop-color="#7000FF" stop-opacity="0"/>
<stop offset="1" stop-color="#9E00FF"/>
</linearGradient>
<linearGradient id="paint1_linear_2689_198683" x1="761.508" y1="157.862" x2="538.485" y2="59.185" gradientUnits="userSpaceOnUse">
<stop stop-color="#989BC7" stop-opacity="0"/>
<stop offset="0.949988" stop-color="#B9BAD0"/>
<stop offset="1" stop-color="#D9D9D9" stop-opacity="0"/>
</linearGradient>
<linearGradient id="paint2_linear_2689_198683" x1="443.766" y1="-106.827" x2="509.781" y2="-49.7563" gradientUnits="userSpaceOnUse">
<stop stop-color="#989BC7" stop-opacity="0"/>
<stop offset="0.5" stop-color="#B9BAD0"/>
<stop offset="1" stop-color="#D9D9D9" stop-opacity="0"/>
</linearGradient>
<linearGradient id="paint3_linear_2689_198683" x1="460.818" y1="-36.7964" x2="533.37" y2="9.0696" gradientUnits="userSpaceOnUse">
<stop stop-color="#989BC7" stop-opacity="0"/>
<stop offset="0.5" stop-color="#B9BAD0"/>
<stop offset="1" stop-color="#D9D9D9" stop-opacity="0"/>
</linearGradient>
<linearGradient id="paint4_linear_2689_198683" x1="551.55" y1="-31.063" x2="659.193" y2="-8.48483" gradientUnits="userSpaceOnUse">
<stop stop-color="#989BC7" stop-opacity="0"/>
<stop offset="0.5" stop-color="#B9BAD0"/>
<stop offset="1" stop-color="#D9D9D9" stop-opacity="0"/>
</linearGradient>
<linearGradient id="paint5_linear_2689_198683" x1="551.507" y1="13.9283" x2="637.288" y2="16.985" gradientUnits="userSpaceOnUse">
<stop stop-color="#989BC7" stop-opacity="0"/>
<stop offset="0.5" stop-color="#B9BAD0"/>
<stop offset="1" stop-color="#D9D9D9" stop-opacity="0"/>
</linearGradient>
<linearGradient id="paint6_linear_2689_198683" x1="504.355" y1="116.986" x2="401.571" y2="110.925" gradientUnits="userSpaceOnUse">
<stop stop-color="#989BC7" stop-opacity="0"/>
<stop offset="0.5" stop-color="#B9BAD0"/>
<stop offset="1" stop-color="#D9D9D9" stop-opacity="0"/>
</linearGradient>
<linearGradient id="paint7_linear_2689_198683" x1="560.709" y1="315.327" x2="471.484" y2="407.26" gradientUnits="userSpaceOnUse">
<stop stop-color="#989BC7" stop-opacity="0"/>
<stop offset="0.5" stop-color="#B9BAD0"/>
<stop offset="1" stop-color="#D9D9D9" stop-opacity="0"/>
</linearGradient>
<linearGradient id="paint8_linear_2689_198683" x1="526.041" y1="281.652" x2="507.937" y2="319.619" gradientUnits="userSpaceOnUse">
<stop stop-color="#989BC7" stop-opacity="0"/>
<stop offset="0.5" stop-color="#B9BAD0"/>
<stop offset="1" stop-color="#D9D9D9" stop-opacity="0"/>
</linearGradient>
<linearGradient id="paint9_linear_2689_198683" x1="483.125" y1="313.415" x2="447.375" y2="483.625" gradientUnits="userSpaceOnUse">
<stop stop-color="#989BC7" stop-opacity="0"/>
<stop offset="0.5" stop-color="#B9BAD0"/>
<stop offset="1" stop-color="#D9D9D9" stop-opacity="0"/>
</linearGradient>
<linearGradient id="paint10_linear_2689_198683" x1="648.557" y1="221.714" x2="724.034" y2="370.343" gradientUnits="userSpaceOnUse">
<stop stop-color="#989BC7" stop-opacity="0"/>
<stop offset="0.5" stop-color="#B9BAD0"/>
<stop offset="1" stop-color="#D9D9D9" stop-opacity="0"/>
</linearGradient>
<linearGradient id="paint11_linear_2689_198683" x1="706.815" y1="130.288" x2="584.46" y2="42.9281" gradientUnits="userSpaceOnUse">
<stop offset="0.270833" stop-color="#989BC7" stop-opacity="0"/>
<stop offset="1" stop-color="#B9BAD0"/>
</linearGradient>
<linearGradient id="paint12_linear_2689_198683" x1="501.08" y1="136.519" x2="596.978" y2="101.233" gradientUnits="userSpaceOnUse">
<stop stop-color="#B9BAD0"/>
<stop offset="0.453125" stop-color="#989BC7" stop-opacity="0"/>
</linearGradient>
<linearGradient id="paint13_linear_2689_198683" x1="510.716" y1="175.433" x2="579.771" y2="135.546" gradientUnits="userSpaceOnUse">
<stop stop-color="#B9BAD0"/>
<stop offset="0.453125" stop-color="#989BC7" stop-opacity="0"/>
</linearGradient>
<linearGradient id="paint14_linear_2689_198683" x1="761.508" y1="157.862" x2="597.116" y2="77.5563" gradientUnits="userSpaceOnUse">
<stop offset="0.666667" stop-color="#D9D9D9" stop-opacity="0"/>
<stop offset="1" stop-color="#989BC7"/>
</linearGradient>
<linearGradient id="paint15_linear_2689_198683" x1="443.766" y1="-106.827" x2="509.781" y2="-49.7563" gradientUnits="userSpaceOnUse">
<stop offset="0.401042" stop-color="#989BC7"/>
<stop offset="1" stop-color="#D9D9D9" stop-opacity="0"/>
</linearGradient>
<linearGradient id="paint16_linear_2689_198683" x1="460.818" y1="-36.7964" x2="533.37" y2="9.0696" gradientUnits="userSpaceOnUse">
<stop offset="0.401042" stop-color="#989BC7"/>
<stop offset="1" stop-color="#D9D9D9" stop-opacity="0"/>
</linearGradient>
<linearGradient id="paint17_linear_2689_198683" x1="584.406" y1="366.713" x2="562.904" y2="404.827" gradientUnits="userSpaceOnUse">
<stop stop-color="#989BC7" stop-opacity="0"/>
<stop offset="0.101621" stop-color="#B9BAD0"/>
<stop offset="1" stop-color="#D9D9D9" stop-opacity="0"/>
</linearGradient>
<linearGradient id="paint18_linear_2689_198683" x1="584.434" y1="366.885" x2="562.725" y2="404.882" gradientUnits="userSpaceOnUse">
<stop offset="0.401042" stop-color="#989BC7"/>
<stop offset="1" stop-color="#D9D9D9" stop-opacity="0"/>
</linearGradient>
<linearGradient id="paint19_linear_2689_198683" x1="390.071" y1="46.3614" x2="566.475" y2="32.4179" gradientUnits="userSpaceOnUse">
<stop offset="0.401042" stop-color="#989BC7"/>
<stop offset="1" stop-color="#D9D9D9" stop-opacity="0"/>
</linearGradient>
<linearGradient id="paint20_linear_2689_198683" x1="412.457" y1="121.79" x2="547.269" y2="87.5934" gradientUnits="userSpaceOnUse">
<stop offset="0.401042" stop-color="#989BC7"/>
<stop offset="1" stop-color="#D9D9D9" stop-opacity="0"/>
</linearGradient>
<linearGradient id="paint21_linear_2689_198683" x1="762.919" y1="342.544" x2="653.07" y2="427.849" gradientUnits="userSpaceOnUse">
<stop offset="0.401042" stop-color="#989BC7"/>
<stop offset="1" stop-color="#D9D9D9" stop-opacity="0"/>
</linearGradient>
<linearGradient id="paint22_linear_2689_198683" x1="552.427" y1="-31.2146" x2="659.345" y2="-8.96639" gradientUnits="userSpaceOnUse">
<stop offset="0.401042" stop-color="#989BC7"/>
<stop offset="1" stop-color="#D9D9D9" stop-opacity="0"/>
</linearGradient>
<linearGradient id="paint23_linear_2689_198683" x1="551.507" y1="13.9283" x2="637.288" y2="16.985" gradientUnits="userSpaceOnUse">
<stop offset="0.401042" stop-color="#989BC7"/>
<stop offset="1" stop-color="#D9D9D9" stop-opacity="0"/>
</linearGradient>
<linearGradient id="paint24_linear_2689_198683" x1="539.014" y1="186.602" x2="583.377" y2="154.236" gradientUnits="userSpaceOnUse">
<stop stop-color="#989BC7"/>
<stop offset="1" stop-color="#D9D9D9" stop-opacity="0"/>
</linearGradient>
<linearGradient id="paint25_linear_2689_198683" x1="539.014" y1="186.602" x2="583.377" y2="154.236" gradientUnits="userSpaceOnUse">
<stop stop-color="#989BC7"/>
<stop offset="1" stop-color="#D9D9D9" stop-opacity="0"/>
</linearGradient>
<linearGradient id="paint26_linear_2689_198683" x1="620.999" y1="333.813" x2="593.303" y2="381.232" gradientUnits="userSpaceOnUse">
<stop stop-color="#989BC7"/>
<stop offset="1" stop-color="#D9D9D9" stop-opacity="0"/>
</linearGradient>
<linearGradient id="paint27_linear_2689_198683" x1="762.919" y1="342.544" x2="653.07" y2="427.849" gradientUnits="userSpaceOnUse">
<stop offset="0.401042" stop-color="#989BC7"/>
<stop offset="1" stop-color="#D9D9D9" stop-opacity="0"/>
</linearGradient>
<linearGradient id="paint28_linear_2689_198683" x1="620.999" y1="333.813" x2="593.303" y2="381.232" gradientUnits="userSpaceOnUse">
<stop stop-color="#989BC7"/>
<stop offset="1" stop-color="#D9D9D9" stop-opacity="0"/>
</linearGradient>
<linearGradient id="paint29_linear_2689_198683" x1="504.495" y1="116.986" x2="398.132" y2="110.494" gradientUnits="userSpaceOnUse">
<stop stop-color="#D9D9D9" stop-opacity="0"/>
<stop offset="1" stop-color="#989BC7"/>
</linearGradient>
<linearGradient id="paint30_linear_2689_198683" x1="561.028" y1="315.608" x2="471.333" y2="407.083" gradientUnits="userSpaceOnUse">
<stop offset="0.401042" stop-color="#989BC7"/>
<stop offset="1" stop-color="#D9D9D9" stop-opacity="0"/>
</linearGradient>
<linearGradient id="paint31_linear_2689_198683" x1="526.995" y1="279.119" x2="479.235" y2="321.999" gradientUnits="userSpaceOnUse">
<stop stop-color="#989BC7"/>
<stop offset="1" stop-color="#D9D9D9" stop-opacity="0"/>
</linearGradient>
<linearGradient id="paint32_linear_2689_198683" x1="482.582" y1="314.23" x2="445.929" y2="484.248" gradientUnits="userSpaceOnUse">
<stop offset="0.401042" stop-color="#989BC7"/>
<stop offset="1" stop-color="#D9D9D9" stop-opacity="0"/>
</linearGradient>
<linearGradient id="paint33_linear_2689_198683" x1="689.992" y1="300.501" x2="439.845" y2="468.037" gradientUnits="userSpaceOnUse">
<stop offset="0.401042" stop-color="#989BC7"/>
<stop offset="1" stop-color="#D9D9D9" stop-opacity="0"/>
</linearGradient>
<linearGradient id="paint34_linear_2689_198683" x1="1048.81" y1="285.021" x2="589.361" y2="106.114" gradientUnits="userSpaceOnUse">
<stop stop-color="#D9D9D9" stop-opacity="0"/>
<stop offset="0.221025" stop-color="#D9D9D9" stop-opacity="0.23"/>
<stop offset="0.95278" stop-color="#C2C3D3" stop-opacity="0"/>
<stop offset="1" stop-color="#989BC7"/>
</linearGradient>
<clipPath id="clip0_2689_198683">
<rect width="770.064" height="390" fill="white" transform="translate(0 0.257812)"/>
</clipPath>
</defs>
</svg>
